<?xml version="1.0" standalone="no"?>
  <!DOCTYPE svg PUBLIC "-//W3C//DTD SVG 1.1//EN" "http://www.w3.org/Graphics/SVG/1.1/DTD/svg11.dtd" >
  <svg>
  <metadata>
  Created by font-carrier
  </metadata>
  <defs>
  <font id="KZBalmoral-Regular" horiz-adv-x="2245" vert-adv-y="2245" >
    <font-face
      
      font-family="KZ Balmoral"
      
      font-weight="400"
      
      font-stretch="normal"
      
      units-per-em="2048"
      
      ascent="944"
      
      descent="-1024"
      
    />
      <missing-glyph />

      

      
      <glyph glyph-name="uni21" unicode="&#x21;" d="M160 205L138 205L148 250Q148 251 161 307L168 338Q169 341 170 346L213 550L248 763Q263 857 328 857Q382 857 382 799Q382 721 278 486L240 400L208 330Q187 284 167 224Q165 218 160 205M182 76Q179-8 106-8Q54-8 54 50Q54 83 76 109.50Q98 136 130 136Q184 136 182 76Z"  horiz-adv-x="409" vert-adv-y="2048"  />

      
      <glyph glyph-name="uni22" unicode="&#x22;" d="M334 456L314 456Q314 465 315 468L315 475L317 538Q322 690 357 729Q375 749 403 749Q440 749 440 709Q440 670 405 598L376 538Q359 502 334 456M163 456L142 456Q142 459 143 475L146 538Q149 603 154 637Q170 749 231 749Q268 749 268 709Q268 673 233 598L205 538Q189 503 163 456Z"  horiz-adv-x="459" vert-adv-y="2048"  />

      
      <glyph glyph-name="uni24" unicode="&#x24;" d="M187 12L204 77Q200 76 192 76Q167 76 141 85L123 22Q156 12 187 12M131 120L179 298L170 298Q112 298 72 256Q32 214 32 155Q32 75 106 31L124 96Q91 116 78 159L98 170Q109 138 131 120M211 101L256 265Q231 289 200 295L149 110Q169 99 194 99Q198 99 211 101M270 243L234 113Q284 134 284 201Q284 220 270 243M293 327L279 278Q307 235 307 199Q307 116 225 80L209 15Q342 42 342 188Q342 250 293 327M262 292L278 348Q262 368 232 410L207 320Q239 311 262 292M249 553L295 723Q232 688 232 616Q232 585 249 553M309 464L380 729Q367 735 346 735Q334 735 319 731L264 528Q268 519 270 517L285 495L300 474Q300 474 302 472L304 470Q306 467 309 464M398 720L329 456Q446 501 446 625Q446 692 398 720M413 855L434 855L405 745Q479 709 479 618Q479 500 337 433Q431 309 431 225Q431 98 323 33Q270 1 200-11L178-104L159-104L179-11L171-11Q151-11 118-2L90-104L70-104L100 6Q10 59 10 155Q10 231 59.50 276Q109 321 186 321L212 419Q68 449 68 591Q68 676 146 754L159 735Q91 662 91 593Q91 482 211 441Q179 511 179 561Q179 701 303 753L330 855L353 855L327 755Q341 758 346 758Q359 758 376 755L387 753L413 855Z"  horiz-adv-x="493" vert-adv-y="2048"  />

      
      <glyph glyph-name="uni25" unicode="&#x25;" d="M562 305Q562 358 525 357Q488 356 452 261Q401 126 401 48Q401 11 432 11Q498 11 547 215Q562 277 562 305M279 689Q279 742 242 741Q205 740 170 645Q119 507 119 432Q119 395 150 395Q196 395 231 488Q279 615 279 689M591 280Q591 202 548 103Q498-14 431-14Q346-14 346 99Q346 247 439 340Q479 380 524 380Q591 380 591 280M601 751L88 0L55 0L566 751L601 751M309 664Q309 586 266 488Q214 370 149 370Q64 370 64 483Q64 571 108 659Q161 764 241 764Q309 764 309 664Z"  horiz-adv-x="655" vert-adv-y="2048"  />

      
      <glyph glyph-name="uni26" unicode="&#x26;" d="M626 116Q698 191 698 293Q698 377 648 438Q594 503 512 503L493 503Q546 447 570 375Q583 337 601 226Q611 165 626 116M430 621Q608 668 608 773Q608 839 552 839Q495 839 454 783Q416 732 416 673Q416 649 430 621M817 145L838 144Q821-9 694-9Q621-9 572 43Q490-2 400-2Q270-2 179 82Q85 168 85 297Q85 432 172 510Q241 573 386 613L404 618Q381 664 381 700Q381 795 464 844Q501 866 545 866Q583 866 608 841Q633 816 633 778Q633 654 447 603Q475 575 516 575Q562 575 645 644Q737 720 796 720Q924 720 924 595Q924 516 857 516Q807 516 807 569Q807 619 854 619Q872 619 895 593Q898 605 898 612Q898 670 843 670Q828 670 807 663Q761 648 740 634L663 583Q610 548 531 548Q455 548 418 597Q240 555 177 433Q146 373 146 303Q146 142 276 61Q335 24 411 24Q489 24 556 61Q505 127 495 205Q490 246 489 324Q488 446 449 496Q314 464 314 335Q314 279 359 217L348 199Q290 263 290 337Q290 458 428 514Q403 531 351 536L351 559Q418 551 462 524Q489 527 503 527Q602 527 663 455Q720 387 720 287Q720 175 633 91Q658 21 716 21Q791 21 817 145Z"  horiz-adv-x="923" vert-adv-y="2048"  />

      
      <glyph glyph-name="uni27" unicode="&#x27;" d="M163 456L142 456Q143 464 144 470L144 475L148 538Q161 749 238 749Q274 749 274 711Q274 672 237 598L207 538Q188 500 163 456Z"  horiz-adv-x="294" vert-adv-y="2048"  />

      
      <glyph glyph-name="uni28" unicode="&#x28;" d="M558 1056L566 1034Q398 899 304 648Q219 424 219 185Q219 39 276-122L260-135Q136 140 136 360Q136 712 509 1016L558 1056Z"  horiz-adv-x="463" vert-adv-y="2048"  />

      
      <glyph glyph-name="uni29" unicode="&#x29;" d="M-81-135L-89-112Q81 29 174 274Q258 495 258 737Q258 886 201 1043L217 1056Q341 803 341 561Q341 209-32-95L-81-135Z"  horiz-adv-x="504" vert-adv-y="2048"  />

      
      <glyph glyph-name="uni2a" unicode="&#x2a;" d="M261 601L214 601Q219 612 220 618L240 673L258 732Q260 736 262 738Q264 740 264 749L205 721Q179 709 138 688L123 729L139 734L185 750Q227 764 261 780Q230 804 177 837L208 873Q211 869 218 862L246 837Q257 827 281 808Q292 844 304 901L307 915L352 915Q352 906 349 903L338 865Q337 859 333 847Q331 844 329 835.50Q327 827 323 813Q333 819 336 820L342 822L372 837Q392 847 417 862L439 823L426 818Q382 801 334 778L326 774Q376 727 424 693L398 654Q368 685 304 741Q293 713 282 674L268 626Q266 622 261 601Z"  horiz-adv-x="425" vert-adv-y="2048"  />

      
      <glyph glyph-name="uni0458" unicode="&#x0458;" d="M-164-360L-90-82L-124-80Q-221-74-279-195Q-305-249-305-300Q-305-343-286-379Q-262-423-223-423Q-181-423-164-360M235 674Q235 645 213 625.50Q191 606 162 606Q106 606 106 659Q106 689 127 710.50Q148 732 178 732Q235 732 235 674M172 510L7-103Q39-135 64-181L44-192Q29-163 0-131L-27-227Q-60-344-89-388Q-130-450-208-450Q-265-450-298-403Q-327-362-327-302Q-327-169-223-92Q-177-58-127-58Q-108-58-84-61L69 510Q97 506 121 506Q144 506 172 510Z"  horiz-adv-x="196" vert-adv-y="2048"  />

      
      <glyph glyph-name="uni2c" unicode="&#x2c;" d="M-8-210L-20-192Q100-107 100-43Q100-15 75 7Q42 36 42 69Q42 149 114 149Q175 149 175 64Q175-92-8-210Z"  horiz-adv-x="330" vert-adv-y="2048"  />

      
      <glyph glyph-name="uni2d" unicode="&#x2d;" d="M262 267L191 269L148 269Q138 269 110 268L82 267Q95 301 99 326L117 326Q120 325 125 325L184 323L207 323Q225 323 277 326Q276 316 274 313L267 295L265 279L262 267Z"  horiz-adv-x="393" vert-adv-y="2048"  />

      
      <glyph glyph-name="uni2e" unicode="&#x2e;" d="M173 82Q173-7 101-7Q47-7 47 52Q47 136 123 136Q173 136 173 82Z"  horiz-adv-x="330" vert-adv-y="2048"  />

      
      <glyph glyph-name="uni2f" unicode="&#x2f;" d="M721 1167L-3-246L-64-246L658 1167L721 1167Z"  horiz-adv-x="573" vert-adv-y="2048"  />

      
      <glyph glyph-name="uni30" unicode="&#x30;" d="M453 612Q453 727 367 727Q286 727 210 527Q108 259 108 96Q108 10 181 10Q280 10 356 204Q453 452 453 612M487 560Q487 411 404 217Q306-15 180-15Q86-15 43 88Q22 138 22 198Q22 367 109 541Q212 749 365 749Q487 749 487 560Z"  horiz-adv-x="510" vert-adv-y="2048"  />

      
      <glyph glyph-name="uni31" unicode="&#x31;" d="M174 0Q150 7 122 7Q93 7 55 0L64 32Q98 153 166 334Q225 490 281 630Q175 523 76 436L61 455L86 478L167 553Q203 586 305 691Q330 716 353 748L369 732Q331 613 322 582Q301 505 282 432L266 369Q257 334 241 275Q237 259 227 220Q222 203 216 178L204 130Q203 125 199 113L183 38Q183 29 180 26Q180 20 178 16L174 0Z"  horiz-adv-x="342" vert-adv-y="2048"  />

      
      <glyph glyph-name="uni32" unicode="&#x32;" d="M381 233L402 227Q385 143 343 76Q288-12 217-12Q158-12 101 56Q64 101 34 101Q-6 101-6 62Q-5 54-1 31Q1 20 1 15Q1-9-21-9Q-41-9-41 17Q-41 140 161 308Q267 396 313 494Q353 579 353 652Q353 715 299 715Q232 715 161 611Q112 539 105 430L80 429Q87 537 134 614Q212 742 318 742Q376 742 416.50 705.50Q457 669 457 611Q457 537 397 466Q356 418 256 345Q160 275 128 247Q66 192 25 125Q67 142 98 142Q132 142 161 134L208 121Q237 113 262 113Q350 113 381 233Z"  horiz-adv-x="473" vert-adv-y="2048"  />

      
      <glyph glyph-name="uni33" unicode="&#x33;" d="M501 745L517 727L502 713Q476 688 416 633Q402 620 333 570Q311 554 253 513Q404 513 404 385Q404 195 172 32Q110-12-16-78Q-64-103-100-118L-109-97Q67-10 157 98Q301 271 301 414Q301 488 248 488Q214 488 182 438Q172 422 164 422Q147 422 147 439Q147 467 250 540Q305 579 443 691Q323 628 263 628Q251 628 226 632Q201 636 189 636Q170 636 148 609L97 545L78 556Q119 608 160 668Q186 706 204 737Q224 740 234 740Q254 740 286 730Q338 714 358 710Q368 708 391 708Q458 708 501 745Z"  horiz-adv-x="471" vert-adv-y="2048"  />

      
      <glyph glyph-name="uni34" unicode="&#x34;" d="M229 314Q234 326 240 339L252 374Q255 384 291 464L351 599Q326 574 308 555L237 480Q209 450 161 407Q142 390 88 339L60 313Q119 321 153 321Q194 321 229 314M241 0Q216 6 188 6Q153 6 118 0Q149 112 206 254L221 291Q196 298 163 298Q89 298 11 277L0 292Q9 300 30 319L101 382Q181 453 285 564Q361 646 431 737L448 731L395 569Q394 565 355 435Q329 347 319 306L335 303Q351 300 370 300Q381 300 421 306L421 282Q404 278 373 278Q340 278 312 282L305 256L259 82Q254 63 241 0Z"  horiz-adv-x="461" vert-adv-y="2048"  />

      
      <glyph glyph-name="uni35" unicode="&#x35;" d="M-77-111L-88-89Q141 23 243 222Q291 316 291 403Q291 493 221 493Q161 493 92 407L73 417Q80 431 97 469L144 576Q151 592 168 633L183 671Q201 734 235 734Q256 734 287 730L333 724Q364 720 386 720Q449 720 479 765L498 752Q438 629 344 629Q309 629 249 644Q233 648 221 648Q205 648 201 641Q192 626 176 587L135 486Q185 520 233 520Q330 520 375 442Q396 406 396 360Q396 224 224 79Q120-8-77-111Z"  horiz-adv-x="471" vert-adv-y="2048"  />

      
      <glyph glyph-name="uni36" unicode="&#x36;" d="M376 428Q376 505 312 505Q207 505 132 263Q97 150 97 84Q97 13 157 13Q224 13 290 140Q320 198 344 276Q376 380 376 428M465 850L479 829Q290 690 190 454Q256 529 319 529Q382 529 418 484.50Q454 440 454 376Q454 249 370 124Q277-14 155-14Q89-14 47 49Q10 104 10 173Q10 317 108 487Q155 568 213 632Q302 729 465 850Z"  horiz-adv-x="502" vert-adv-y="2048"  />

      
      <glyph glyph-name="uni37" unicode="&#x37;" d="M77-118Q14-46 14 21Q14 161 134 313Q206 404 345 539Q447 638 496 690L469 677Q371 630 297 630Q282 630 254 631.50Q226 633 213 633Q148 634 101 564L83 575L206 736Q224 736 233 733L314 717Q365 707 424 707Q482 707 542 736L552 713Q544 705 540 699L535 694Q533 692 529 688L434 587Q359 508 266 348Q156 160 120 49Q101-10 77-118Z"  horiz-adv-x="442" vert-adv-y="2048"  />

      
      <glyph glyph-name="uni38" unicode="&#x38;" d="M351 341Q351 421 273 421Q199 421 144 297Q98 193 98 108Q98 15 181 15Q253 15 306 146Q351 255 351 341M428 662Q428 723 369 723Q310 723 277 651Q239 569 239 506Q239 448 300 448Q354 448 385 511Q428 598 428 662M341 426Q436 360 436 262Q436 111 308 29Q249-9 184-9Q102-9 55.50 40Q9 89 9 172Q9 378 239 439Q154 489 154 552Q154 632 217.50 689.50Q281 747 362 747Q426 747 463.50 707.50Q501 668 501 604Q501 461 341 426Z"  horiz-adv-x="511" vert-adv-y="2048"  />

      
      <glyph glyph-name="uni39" unicode="&#x39;" d="M404 648Q404 722 341 722Q278 722 216 604Q122 424 122 313Q122 284 143 256Q164 228 192 228Q262 228 315 339Q357 428 381 525Q385 544 397 606Q404 640 404 648M21-125L7-107Q61-67 93-40Q116-21 148 14Q164 31 201 81Q275 181 306 272Q242 203 183 203Q121 203 84 256Q51 303 51 367Q51 561 205 688Q273 744 337 744Q429 744 473 656Q493 616 493 562Q493 308 244 57Q165-23 96-71L43-108L21-125Z"  horiz-adv-x="502" vert-adv-y="2048"  />

      
      <glyph glyph-name="uni3a" unicode="&#x3a;" d="M173 82Q173-7 101-7Q47-7 47 52Q47 136 123 136Q173 136 173 82M235 303Q235 269 216 243Q195 214 162 214Q109 214 109 273Q109 357 184 357Q235 357 235 303Z"  horiz-adv-x="330" vert-adv-y="2048"  />

      
      <glyph glyph-name="uni3b" unicode="&#x3b;" d="M235 303Q235 269 216 243Q195 214 162 214Q109 214 109 273Q109 357 184 357Q235 357 235 303M-2-210L-13-192Q107-105 107-43Q107-16 81 7Q48 36 48 69Q48 101 69 125Q90 149 121 149Q182 149 182 64Q182-89-2-210Z"  horiz-adv-x="330" vert-adv-y="2048"  />

      
      <glyph glyph-name="uniFB01" unicode="&#xFB01;" d="M-49-321L35-15Q8-11-1-11Q-93-11-153-122Q-204-216-204-315Q-204-426-127-426Q-78-426-49-321M569 277L592 269L571 217Q481-7 403-7Q360-7 333 29Q309 61 309 106Q309 133 332 219L381 402Q365 454 328 454Q306 454 260 422L131-36Q175-71 197-128L176-136L174-130L171-125Q171-124 170-123L168-121Q156-95 150-88Q141-76 123-63L62-292Q17-462-99-462Q-160-462-195-418Q-228-377-228-315Q-228-202-170-103Q-102 13 4 13Q19 13 44 8L144 371Q122 364 110 364Q100 364 63 372Q58 348 28 269L6 277L10 287Q12 295 13 296Q30 344 41 382Q4 401 4 441Q4 479 34 479Q67 479 67 424Q67 411 64 400Q90 391 112 391Q135 391 151 400L245 722Q313 955 462 955Q615 955 615 818Q615 767 586 722Q554 671 505 671Q452 671 452 729Q452 777 513 793Q574 809 574 847Q574 923 485 923Q408 923 380 843Q367 801 341 716Q341 712 339.50 708.50Q338 705 338 703L270 460Q304 477 326 477Q365 477 392 441L410 507Q433 504 458 504Q478 504 510 509L399 100Q391 71 391 52Q391 23 415 23Q451 23 501 119Q527 169 569 277Z"  horiz-adv-x="564" vert-adv-y="2048"  />

      
      <glyph glyph-name="uniFB02" unicode="&#xFB02;" d="M-50-340L39-12Q12-6-3-6Q-107-6-170-162Q-199-234-199-305Q-199-425-122-425Q-73-425-50-340M397 439L469 699Q460 695 448 695Q403 695 403 753Q403 803 457 814Q494 822 506.50 833.50Q519 845 519 879Q519 932 462 932Q414 932 386 858Q377 833 354 757L337 700Q333 688 328 668L273 465Q312 482 332 482Q369 482 397 439M638 941L406 100Q396 64 396 52Q396 23 422 23Q449 23 482 74Q508 114 561 241L576 277L598 269Q545 138 528 105Q468-8 406-8Q363-8 338 32Q316 67 316 112Q316 135 329 185L345 246L352 270L387 400Q371 458 327 458Q299 458 264 430L136-32Q181-72 201-124L182-135Q164-94 130-60L69-269Q48-342 32-373Q-12-460-98-460Q-222-460-222-304Q-222-132-108-28Q-58 18-4 18Q14 18 45 11L144 372Q122 367 108 367Q90 367 62 372Q49 324 28 269L5 277Q27 331 40 383Q6 408 6 440Q6 480 36 480Q71 480 71 432Q71 418 68 400Q89 393 110 393Q132 393 152 400L237 705Q308 959 452 959Q502 959 532 922L537 941Q565 939 585 939Q604 939 638 941Z"  horiz-adv-x="571" vert-adv-y="2048"  />

      
      <glyph glyph-name="uni3f" unicode="&#x3f;" d="M321 712L342 723Q362 678 362 639Q362 564 322 489Q275 400 206 400Q160 400 134 441Q112 476 112 525Q112 684 263 807Q327 859 389 859Q457 859 497 810Q534 765 534 695Q534 612 482 535Q449 486 363 409Q244 302 244 256Q244 251 247.50 240.50Q251 230 251 225Q251 214 238 203Q225 192 213 192Q197 192 197 210Q197 257 245 318L295 382Q351 454 395 559Q443 674 443 756Q443 831 383 831Q306 831 235 691Q172 567 172 480Q172 428 211 428Q275 428 319 539Q338 587 338 635Q338 667 321 712M241 78Q241 44 220 18Q199-8 166-8Q113-8 113 48Q113 133 188 133Q241 133 241 78Z"  horiz-adv-x="564" vert-adv-y="2048"  />

      
      <glyph glyph-name="uniFB03" unicode="&#xFB03;" d="M-49-321L35-15Q8-11-1-11Q-93-11-153-122Q-204-216-204-315Q-204-355-186-387Q-165-426-128-426Q-78-426-49-321M368 464L431 692L447 692Q458 691 477 691Q502 691 512 692L532 694L459 437Q504 440 533 461L545 446Q510 414 452 414L369 111Q357 67 357 54Q357 21 383 21Q437 21 536 273L559 265L550 243Q511 148 498 120Q437-11 368-11Q324-11 299 26Q277 58 277 104Q277 134 295 199L361 438Q345 454 328 454Q305 454 259 422L131-36Q175-71 197-128L176-136L168-121Q146-80 123-63L63-292Q18-462-99-462Q-160-462-195-418Q-228-377-228-315Q-228-201-170-102Q-102 13 4 13Q19 13 44 8L143 371Q122 364 109 364Q100 364 63 372Q49 322 28 269L5 277Q12 292 12 296Q30 346 41 382Q4 401 4 441Q4 479 33 479Q67 479 67 424Q67 413 63 400Q89 391 112 391Q135 391 151 400L225 655Q258 768 269 796Q333 955 452 955Q555 955 555 845Q555 753 480 753Q424 753 424 807Q424 849 469 861L488 866Q508 871 508 889Q508 927 463 927Q416 927 387 868Q376 846 355 769L270 460Q304 477 327 477Q346 477 368 464Z"  horiz-adv-x="532" vert-adv-y="2048"  />

      
      <glyph glyph-name="unic1" unicode="&#xc1;" d="M1099 306Q1085 303 1054 300L1025 297Q1016 297 1011 296Q880 154 708 154Q571 154 478.50 243.50Q386 333 386 470Q386 514 405 574L425 568Q408 506 408 468Q408 302 550 219Q616 180 692 180Q826 180 956 304Q904 318 870 360L887 372Q913 334 972 323Q1032 386 1072 507Q1000 472 931 472Q795 472 706 574Q621 672 621 810Q621 927 683 1025Q487 1019 335 892Q118 710 118 429Q118 285 186 158Q254 31 374.50-43.50Q495-118 633-118Q833-118 963 36Q1029 114 1099 306M1080 539Q1088 589 1088 620Q1088 792 971 908Q874 1004 710 1024Q644 917 644 806Q644 625 787 537Q855 495 932 495Q1003 495 1080 539M1382 839Q1372 964 1304 1057Q1208 1189 1026 1189Q848 1189 728 1046Q903 1019 1009 900.50Q1115 782 1115 606Q1115 573 1114 557Q1215 672 1247 792L1268 791Q1224 623 1110 530Q1078 386 1028 322Q1054 322 1078 327L1097 331L1108 333Q1127 383 1129 386L1196 550Q1258 701 1264 713Q1312 805 1382 839M1321 394Q1333 467 1334 467L1360 603Q1382 718 1382 786Q1382 804 1381 812Q1298 771 1206 489Q1192 445 1162 347Q1191 356 1196 356L1240 370L1297 386Q1310 390 1309 390L1321 394M1697-108L1717-108Q1718-112 1718-121Q1718-244 1571-244Q1430-244 1358-103Q1301 8 1301 163Q1301 247 1317 368L1293 360L1237 344Q1202 334 1154 320Q1110 193 1076 128Q990-37 833-103Q738-143 638-143Q486-143 358-62Q233 16 159 152.50Q85 289 85 451Q85 759 325 933Q485 1049 657 1049L678 1049Q685 1048 700 1048Q823 1215 1056 1215Q1255 1215 1371 1095Q1487 975 1487 775Q1487 630 1455 403Q1531 390 1578 333L1560 321Q1511 374 1453 379Q1425 184 1425 70Q1425-219 1590-219Q1697-219 1697-108M1574 1314L1442 1238L1428 1253L1538 1363L1559 1387Q1568 1397 1584 1397Q1618 1397 1618 1363Q1618 1339 1574 1314Z"  horiz-adv-x="1619" vert-adv-y="2048"  />

      
      <glyph glyph-name="uni42" unicode="&#x42;" d="M1428 1051Q1250 1215 1016 1215Q766 1215 609 1050L627 1051Q663 1053 682 1053Q766 1053 855.50 1014Q945 975 1002 914Q1089 821 1111 679Q1165 792 1165 879Q1165 945 1141 1008L1162 1019Q1188 950 1188 885Q1188 761 1113 636Q1114 622 1114 589Q1114 340 911 214Q816 155 711 155Q574 155 480.50 244.50Q387 334 387 470Q387 511 402 574L424 572Q409 509 409 473Q409 306 550 222Q616 183 692 183Q807 183 914 267Q1015 347 1058 458Q1080 515 1086 598Q969 477 817 477Q676 477 582.50 575Q489 673 489 815Q489 907 545 1008Q412 961 324 886Q119 710 119 434Q119 284 188.50 151.50Q258 19 383-62Q503-140 642-140Q855-140 982 59Q1047 160 1110 338Q1169 504 1204 627Q1232 726 1244 761Q1270 839 1298 889Q1341 967 1428 1051M1087 640Q1071 820 959 920Q839 1027 679 1027Q646 1027 582 1017Q513 937 513 810Q513 682 601.50 591Q690 500 818 500Q970 500 1087 640M1454 275Q1464 316 1464 390Q1464 472 1423 519Q1400 514 1384 514Q1328 514 1328 541Q1331 561 1361 561Q1385 561 1424 547Q1461 575 1476 610Q1513 697 1513 810Q1513 937 1447 1028Q1397 975 1358 859Q1328 770 1316 698Q1303 614 1261 395Q1251 346 1213 223Q1290 284 1384 284Q1408 284 1454 275M1447 247Q1413 259 1379 259Q1270 259 1199 174Q1133 94 1133-18Q1133-60 1155-92Q1179-128 1219-128Q1304-128 1370 17Q1422 131 1447 247M1636 90L1615 78Q1583 146 1560 170Q1526 39 1451-51Q1361-159 1239-159Q1109-159 1109-16Q1109 10 1115 38Q931-167 665-167Q488-167 348-70Q189 41 121 243Q85 348 85 455Q85 754 314 926Q422 1007 571 1042Q735 1238 1017 1238Q1241 1238 1456 1071Q1526 1123 1596 1123Q1622 1123 1665 1115L1665 1092Q1627 1099 1602 1099Q1536 1099 1475 1053Q1619 911 1619 760Q1619 642 1544 574Q1517 549 1457 525Q1500 489 1517 468Q1575 397 1575 299Q1575 286 1570 231L1570 222Q1568 217 1567 202Q1612 160 1636 90Z"  horiz-adv-x="1693" vert-adv-y="2048"  />

      
      <glyph glyph-name="uni43" unicode="&#x43;" d="M965-124Q913 3 913 164Q913 229 920 275Q875 252 810 226L790 218Q778 145 778 104Q778-133 916-133Q934-133 965-124M987-117Q1092-47 1153 115Q1224 303 1224 457Q1224 508 1210 538Q1150 460 1093 406Q1043 359 945 290Q937 202 937 146Q937 5 987-117M1185 572Q1163 587 1142 587Q1018 587 953 326Q1096 423 1185 572M1197 593Q1250 701 1266 745Q1317 881 1317 1017Q1317 1154 1231 1154Q1160 1154 1091 1055Q1130 998 1159 931L1138 921Q1110 981 1075 1033Q1050 997 1021 941Q984 868 969 834Q888 645 844 463Q825 386 805 290L796 248Q876 275 925 308Q951 428 993 497Q1061 609 1143 609Q1172 609 1197 593M667 217Q678 390 714 510Q759 661 837 807Q895 916 1042 1075Q959 1174 838 1206Q774 1223 712 1223Q568 1223 441 1146Q318 1072 242.50 944.50Q167 817 167 672Q167 486 294 352Q424 215 609 215Q633 215 667 217M1176-344L1161-363Q1040-278 973-147Q940-158 921-158Q778-158 703 17Q668 99 667 192Q637 189 617 189Q485 189 373 254Q261 319 197 433.50Q133 548 133 688Q133 839 207.50 968.50Q282 1098 412.50 1173.50Q543 1249 696 1249Q920 1249 1061 1093Q1161 1178 1229 1178Q1306 1178 1342 1072Q1358 1025 1358 960Q1358 771 1228 566Q1278 495 1278 398Q1278 190 1137-4Q1073-91 998-138Q1044-226 1098-280Q1125-307 1176-344Z"  horiz-adv-x="1369" vert-adv-y="2048"  />

      
      <glyph glyph-name="uni44" unicode="&#x44;" d="M1088 637Q1080 821 978 924Q854 1049 678 1049Q656 1049 601 1044Q508 922 508 801Q508 627 663 537Q734 496 817 496Q971 496 1088 637M1443 1028Q1275 1209 1004 1209Q792 1209 635 1075Q855 1075 983 953Q1091 850 1112 678Q1169 783 1169 891Q1169 948 1150 1004L1174 1012Q1195 945 1195 889Q1195 753 1115 634Q1106 502 1068 420Q955 177 713 177Q520 177 427 333Q383 407 383 491Q383 529 403 598L424 592Q407 527 407 493Q407 375 492 289Q577 203 695 203Q844 203 959 326Q1067 442 1085 594Q951 473 820 473Q681 473 582.50 569.50Q484 666 484 805Q484 918 564 1036Q391 987 273 856Q116 682 116 457Q116 307 187 173.50Q258 40 382.50-40Q507-120 648-120Q835-120 973 66Q1028 141 1072 253Q1099 322 1140 454Q1189 610 1218 686Q1272 826 1327 903Q1373 967 1443 1028M1533 268Q1469 298 1411 298Q1340 298 1264 244Q1197 197 1154 129Q1107 55 1107-15Q1107-61 1133-93Q1159-125 1204-125Q1332-125 1432 39Q1464 92 1533 268M1538 293Q1588 465 1588 615Q1588 833 1462 1005Q1377 917 1318 691Q1293 567 1235 321Q1221 271 1209 236Q1316 322 1416 322Q1468 322 1538 293M1637 176L1611 171Q1601 203 1577 233Q1468-23 1338-106Q1269-150 1201-150Q1147-150 1114-109Q1083-72 1083-17Q1083 0 1088 32Q978-81 816-124Q733-146 662-146Q504-146 369-60Q239 23 162 165.50Q85 308 85 477Q85 712 224 870Q360 1023 593 1069Q766 1231 1003 1231Q1152 1231 1281 1175Q1368 1137 1466 1045Q1540 1098 1622 1098Q1647 1098 1679 1091L1677 1069Q1654 1073 1628 1073Q1552 1073 1485 1025Q1641 849 1641 574Q1641 441 1593 281L1587 261Q1624 219 1637 176Z"  horiz-adv-x="1717" vert-adv-y="2048"  />

      
      <glyph glyph-name="uni45" unicode="&#x45;" d="M1056 489Q1015 506 997 540Q929 469 824 469Q660 469 580 632Q543 707 543 801Q543 934 632 1050L603 1046Q445 1024 309 900Q117 725 117 455Q117 307 187 176Q257 45 380-36Q500-115 637-115Q816-115 958 50Q770 172 654 172Q642 172 619.50 169Q597 166 585 166Q563 166 563 188Q563 210 589 210Q604 210 634.50 205.50Q665 201 680 201Q845 201 967 340Q1026 407 1056 489M1419 977Q1315 1014 1280 1030L1174 1078Q1002 1156 903 1156Q781 1156 695 1076Q882 1070 1000 942Q1114 816 1114 631Q1114 566 1096 501Q1116 496 1137 496Q1141 496 1143 497L1153 497Q1159 516 1166 538L1198 633Q1275 860 1419 977M1064 512Q1086 571 1086 640Q1086 822 967 939Q851 1053 697 1053Q678 1053 668 1052Q568 939 568 799Q568 678 635 590Q708 493 825 493Q923 493 987 563Q983 588 983 602Q983 651 1009 651Q1034 651 1034 615Q1034 589 1014 563Q1030 525 1064 512M1136 440L1146 472L1134 472Q1130 471 1126 471Q1113 471 1089 475Q1011 250 757 183Q803 168 873 133L941 99Q946 98 979 79Q1064 209 1136 440M1041-10Q861-141 654-141Q498-141 363-54Q234 30 159.50 171.50Q85 313 85 475Q85 728 244 893Q416 1072 658 1076Q741 1159 867 1187Q926 1200 1007 1200Q1124 1200 1271 1150L1374 1115Q1577 1046 1709 1046Q1865 1046 1865 1147Q1865 1158 1860 1175L1885 1184Q1889 1163 1889 1139Q1889 1041 1796 975Q1738 934 1643 934Q1577 934 1480 959L1449 967Q1383 903 1345 795Q1317 716 1279 518Q1359 535 1386 535Q1430 535 1470 517Q1521 494 1521 455Q1521 430 1499 430Q1484 430 1476 463Q1463 512 1390 512Q1344 512 1274 490L1263 439Q1203 159 1084 34L1194-9Q1234-25 1298-37Q1386-54 1434-54Q1573-54 1639 41Q1676 94 1676 130Q1676 167 1648 167Q1647 167 1622.50 154.50Q1598 142 1582 142Q1557 142 1537.50 165.50Q1518 189 1518 215Q1518 246 1541 266.50Q1564 287 1595 287Q1697 287 1697 140Q1697 9 1602-83Q1523-159 1399-159Q1244-159 1041-10Z"  horiz-adv-x="1797" vert-adv-y="2048"  />

      
      <glyph glyph-name="uni46" unicode="&#x46;" d="M1139 458L1148 487L1133 485Q1122 485 1094 489Q1023 286 877 218Q796 180 712 180Q575 180 480 270.50Q385 361 385 497Q385 549 404 600L427 593Q409 538 409 495Q409 377 491 292Q573 207 691 207Q855 207 976 359Q1019 413 1057 501Q1019 523 1001 552Q928 479 836 479Q672 479 586 643Q547 718 547 808Q547 933 624 1046Q478 1027 362 939Q120 756 120 454Q120 305 189.50 174Q259 43 382.50-35.50Q506-114 642-114Q785-114 901-5Q958 49 1002 122Q1070 235 1139 458M1064 526Q1082 585 1082 641Q1082 824 962.50 936Q843 1048 659 1048Q571 954 571 808Q571 686 643 597Q720 502 839 502Q929 502 990 580Q985 595 985 617Q985 664 1011 663Q1029 663 1029 628Q1029 609 1016 579Q1027 545 1064 526M1156 510Q1179 583 1232 726Q1272 822 1314 871Q1343 905 1428 979L1452 1000Q1332 1034 1293 1051L1138 1119Q1008 1176 925 1176Q781 1176 681 1070Q879 1064 996.50 938Q1114 812 1114 613Q1114 566 1100 512Q1120 509 1139 509Q1151 509 1156 510M1459 526L1449 507Q1401 524 1373 524Q1357 524 1303 515L1279 511L1269 464Q1231 287 1190 197Q1034-144 660-144Q503-144 368-57Q240 27 162.50 170Q85 313 85 478Q85 747 280 921Q428 1053 646 1072Q793 1225 1035 1225Q1135 1225 1270 1181Q1346 1155 1498 1104Q1620 1065 1724 1065Q1832 1065 1922 1171L1940 1158Q1864 1047 1730 1000Q1667 978 1602 978Q1567 978 1486 992Q1434 949 1410 918Q1334 820 1281 537Q1347 548 1363 548Q1402 548 1459 526Z"  horiz-adv-x="1432" vert-adv-y="2048"  />

      
      <glyph glyph-name="uni01F4" unicode="&#x01F4;" d="M986 297Q1087 185 1087 19Q1087-168 979-304Q862-450 680-450Q580-450 499-397.50Q418-345 382-253Q358-192 358-127Q358-75 377-25L398-32Q383-77 383-121Q383-295 521-380Q586-420 659-420Q767-420 862-354Q949-293 1003-192Q1057-91 1057 24Q1057 190 956 289Q855 264 782 264Q608 264 462 383Q222 286 133 70Q88-39 88-161Q88-315 153-446Q221-584 346-665Q467-743 608-743Q850-743 997-461Q1031-397 1067-298Q1094-224 1121-140Q1124-129 1133-102Q1222 171 1286 273Q1317 323 1343 351Q1364 374 1428 419Q1433 423 1453 437Q1376 426 1313 368L1260 319Q1212 275 1165 275Q1103 275 1063 330Q1032 314 986 297M939 311Q827 423 648 423Q581 423 491 394Q628 289 782 289Q874 289 939 311M1050 351Q1012 427 1012 518Q1012 789 1244 1066Q1077 1224 878 1224Q665 1224 511 1069Q357 914 357 701Q357 543 466 419Q561 449 642 449Q777 449 881 389Q931 360 967 319L983 324Q1002 330 1034 344L1050 351M1097 404L1097 377Q1370 565 1507 924Q1550 1037 1550 1113Q1550 1194 1481 1194Q1432 1194 1383 1140Q1350 1103 1305 1023Q1349 969 1383 881L1361 871L1349 898Q1326 949 1293 998Q1261 942 1231 870Q1183 752 1141 622Q1117 547 1111 520Q1097 458 1097 404M1102 353Q1117 301 1166 301Q1207 301 1257 350Q1376 466 1503 466Q1538 466 1538 446Q1538 433 1530 428Q1506 427 1444 402Q1419 386 1400 360Q1372 322 1337 219Q1317 162 1306 121Q1281 31 1278 19L1233-195Q1185-424 1100-546Q994-701 797-751Q718-771 644-771Q382-771 216-590Q55-415 55-150Q55-3 118 125Q183 258 301 339Q347 371 440 410Q325 540 325 724Q325 947 488 1101Q649 1252 873 1252Q1088 1252 1263 1083Q1384 1219 1483 1219Q1583 1219 1583 1089Q1583 892 1381 622Q1283 491 1204 425Q1162 390 1102 353M1616 1354L1484 1278L1470 1293L1580 1403L1601 1427Q1610 1437 1626 1437Q1660 1437 1660 1403Q1660 1379 1616 1354Z"  horiz-adv-x="1538" vert-adv-y="2048"  />

      
      <glyph glyph-name="uni48" unicode="&#x48;" d="M1148 484Q1136 483 1117 483Q1104 483 1093 486Q1052 348 953 266Q849 181 708 181Q568 181 476 272.50Q384 364 384 504Q384 554 401 603L423 597Q410 546 410 503Q410 381 491.50 295Q573 209 694 209Q812 209 918 296Q1017 378 1058 495Q1017 516 996 546Q929 476 821 476Q695 476 611 584Q534 683 534 813Q534 942 607 1048Q523 1032 472 1009Q312 938 215 785Q118 632 118 455Q118 228 266 60Q420-114 644-114Q712-114 782-85Q928-24 1023 156Q1072 249 1148 484M1067 519Q1088 578 1088 643Q1088 819 970.50 936.50Q853 1054 677 1054Q678 1055 678 1054L667 1053L639 1052Q559 936 559 815Q559 696 629 602Q706 499 822 499Q922 499 983 568Q978 590 978 604Q978 654 1007 654Q1029 654 1029 617Q1029 594 1011 568Q1030 529 1067 519M1157 508Q1187 603 1251 791Q1301 924 1426 1031Q1366 1009 1302 1009Q1210 1009 1070.50 1085Q931 1161 868 1161Q739 1161 662 1074L675 1074Q685 1075 689 1075Q875 1075 995 946Q1115 817 1115 630Q1115 569 1099 509Q1103 509 1111 508Q1119 507 1123 507L1157 508M1671-36L1693-40Q1657-211 1537-211Q1446-211 1389-105Q1342-17 1342 83Q1342 228 1425 534L1275 499Q1256 404 1202 219Q1135 49 993-46.50Q851-142 668-142Q413-142 246 44Q85 224 85 481Q85 785 332 965Q451 1052 627 1076Q734 1188 878 1188Q958 1188 1096.50 1112Q1235 1036 1315 1036Q1370 1036 1466 1073.50Q1562 1111 1595 1111Q1606 1111 1612 1110L1612 1086Q1438 1086 1353 830Q1321 733 1279 523L1433 562Q1532 917 1741 1054Q1813 1101 1878 1101Q1929 1101 1965 1075Q2005 1046 2005 997Q2005 941 1953 941Q1913 941 1901.50 1005.50Q1890 1070 1857 1070Q1715 1070 1563 572Q1643 572 1705 499L1685 483Q1629 545 1556 545L1505 341Q1442 88 1442-8Q1442-185 1533-185Q1627-185 1671-36Z"  horiz-adv-x="1715" vert-adv-y="2048"  />

      
      <glyph glyph-name="uni49" unicode="&#x49;" d="M1126 442L1134 468Q1098 473 1082 483Q1042 373 1000 320Q883 171 693 171Q559 171 465 261Q371 351 371 485Q371 536 390 594L412 587Q396 529 396 484Q396 365 479.50 282.50Q563 200 682 200Q805 200 911 291Q1010 375 1051 498Q912 596 912 754Q912 837 962 920Q841 1044 662 1044Q514 1044 382 957Q257 875 182 740Q105 602 105 448Q105 301 175.50 168.50Q246 36 368-43Q490-122 628-122Q843-122 981 97Q1057 217 1126 442M1059 523Q1074 585 1074 635Q1074 728 1031 823Q991 740 991 665Q991 568 1059 523M1141 493L1154 531Q1224 734 1261 817Q1376 1071 1552 1201Q1308 1161 1170 1024Q1099 954 1044 850Q1101 745 1101 615Q1101 569 1087 507Q1114 496 1141 493M1261 476L1252 438Q1190 177 1106 67Q940-150 656-150Q496-150 361.50-68Q227 14 149 155Q71 296 71 466Q71 773 312 950Q418 1028 537 1054Q601 1068 651 1068Q855 1068 977 940Q1097 1093 1322 1170Q1474 1222 1634 1235L1634 1212Q1495 1167 1407 983Q1330 824 1266 507Q1361 539 1426 664L1447 654Q1380 527 1261 476Z"  horiz-adv-x="1392" vert-adv-y="2048"  />

      
      <glyph glyph-name="uni4a" unicode="&#x4a;" d="M1217 496Q1224 516 1240 567Q1265 649 1345 858Q1398 982 1495 1101Q1539 1155 1602 1206Q1428 1177 1290 1073Q1144 963 1087 803Q1061 730 1061 669Q1061 513 1217 496M1488 670L1507 660Q1445 539 1327 486L1319 447Q1235 37 1156-142Q1013-466 749-568Q638-611 521-611Q262-611 105-417Q-38-241-38-19Q-38 279 196 455Q361 579 555 579Q743 579 867.50 450.50Q992 322 992 133Q992-130 790-257Q695-317 584-317Q399-317 306-164Q263-93 263-8Q263 38 281 101L304 95Q287 32 287-5Q287-117 368.50-203.50Q450-290 561-290Q669-290 764-224Q853-163 908-63Q963 37 963 149Q963 383 763 501Q672 555 561 555Q411 555 278 470Q153 388 76 253Q-2 114-2-39Q-2-183 64-308Q132-437 250.50-511.50Q369-586 505-586Q703-586 835-443Q933-337 1016-122Q1075 31 1164 312Q1173 341 1210 471Q1107 485 1042 567Q978 646 978 751Q978 983 1281 1131Q1446 1212 1697 1241L1697 1217Q1632 1205 1581 1154Q1437 1010 1342 550L1335 516Q1428 558 1488 670Z"  horiz-adv-x="1470" vert-adv-y="2048"  />

      
      <glyph glyph-name="uni4b" unicode="&#x4b;" d="M1368 971L1355 977Q1346 984 1264 1027Q1211 1055 1163.50 1086.50Q1116 1118 1024 1164Q974 1183 911 1183Q769 1183 664 1080L684 1080Q805 1080 915 1011Q1025 942 1073 832Q1099 772 1113 680Q1132 711 1140 730Q1155 768 1166 799L1171 813L1191 807Q1169 716 1114 632Q1100 338 891 227Q806 182 713 182Q526 182 432 334Q388 405 388 488Q388 541 403 601L425 597Q411 533 411 488Q411 370 493.50 291Q576 212 694 212Q888 212 1007 398Q1062 484 1079 586Q976 488 857 488Q678 488 587 658Q545 736 545 828Q545 943 610 1047Q512 1037 406 972Q201 846 140 612Q120 535 120 458Q120 308 188 176Q256 44 379-37Q498-115 634-115Q893-115 1037 179Q1079 265 1123 401Q1160 515 1196 629Q1262 820 1368 971M1085 630Q1085 794 1004 897Q880 1054 680 1054L663 1054Q657 1053 643 1053Q568 939 568 830Q568 648 713 555Q780 512 856 512Q986 512 1085 630M1427 974Q1457 962 1492 962Q1542 962 1583 981Q1637 1006 1637 1049Q1637 1085 1591 1085Q1498 1085 1427 974M1414 950Q1359 861 1323 718Q1316 691 1271 471Q1212 181 1101 53Q932-142 664-142Q506-142 371.50-58.50Q237 25 161 166.50Q85 308 85 478Q85 805 350 979Q475 1061 631 1076Q644 1089 646 1092Q766 1215 943 1215Q1098 1215 1227 1110L1345 1014Q1365 997 1388 988Q1508 1108 1595 1108Q1662 1108 1662 1051Q1662 997 1603 964Q1554 936 1495 936Q1464 936 1414 950M1658-165L1668-186Q1590-221 1537-221Q1461-221 1417-158Q1377-102 1377-23Q1377 67 1409 209Q1437 334 1437 410Q1437 497 1402 544Q1386 541 1376 541Q1310 541 1310 577Q1310 604 1337 604Q1372 604 1415 569Q1495 598 1543 683Q1568 727 1575 747L1623 879Q1710 1118 1890 1118Q1990 1118 1990 1055Q1990 1031 1971.50 1008.50Q1953 986 1930 986Q1893 986 1868 1024.50Q1843 1063 1819 1063Q1711 1063 1626 815Q1597 729 1579 693Q1565 663 1530 615Q1505 581 1440 551Q1480 514 1495 493Q1542 428 1542 328Q1542 276 1533 207L1515 70Q1508 17 1508-38Q1508-178 1598-178Q1618-178 1658-165Z"  horiz-adv-x="1649" vert-adv-y="2048"  />

      
      <glyph glyph-name="uni4c" unicode="&#x4c;" d="M669 58Q595 103 561 122Q456 180 363 180Q289 180 235 146Q171 106 171 37Q171-34 243-78Q304-115 380-115Q565-115 669 58M739 203Q770 284 791 349Q802 385 809 407L838 504Q865 594 877 637Q941 866 1005 973Q1039 1030 1092 1091Q956 1211 784 1211Q638 1211 511.50 1133.50Q385 1056 310.50 926.50Q236 797 236 648Q236 389 457 260Q560 200 678 200Q699 200 739 203M897 248Q1003 291 1089 371Q1218 491 1291.50 657.50Q1365 824 1365 999Q1365 1164 1273 1164Q1211 1164 1144 1068Q1174 1036 1192 1007.50Q1210 979 1243 908L1222 898L1211 920Q1177 988 1133 1044Q1105 991 1078 918Q1066 887 1043 810Q1030 766 1005 672Q990 615 974 543Q936 373 897 248M885 215Q841 107 760 19Q887-51 978-68Q1026-77 1080-77Q1168-77 1241-41Q1334 5 1334 83Q1334 108 1318 116L1299 125Q1252 147 1252 202Q1252 232 1271 256.50Q1290 281 1319 281Q1388 281 1388 180Q1388 92 1329 0Q1230-155 1075-155Q954-155 743 3Q582-140 376-140Q292-140 224-96Q146-46 146 34Q146 114 216 162Q277 204 361 204Q489 204 682 78Q711 123 732 179Q696 176 676 176Q546 176 436.50 245Q327 314 263 430.50Q199 547 199 688Q199 914 369 1076Q536 1235 775 1235Q961 1235 1112 1107Q1191 1189 1275 1189Q1413 1189 1413 974Q1413 742 1260 525Q1216 462 1143 387Q1030 271 885 215Z"  horiz-adv-x="1471" vert-adv-y="2048"  />

      
      <glyph glyph-name="uni4d" unicode="&#x4d;" d="M1082 642Q1082 798 997 904Q876 1056 694 1056Q660 1056 645 1055Q568 949 568 831Q568 654 709 561Q774 518 851 518Q981 518 1082 642M1288 903Q1208 1207 937 1207Q781 1207 665 1079L689 1079Q860 1079 977 964Q1090 854 1109 681Q1148 748 1164 812L1186 808Q1159 709 1111 637Q1105 447 1002 320Q889 183 704 183Q516 183 424 338Q381 410 381 501Q381 548 399 606L422 599Q406 550 406 504Q406 380 487 296.50Q568 213 691 213Q889 213 1010 403Q1066 491 1081 599Q982 494 853 494Q719 494 630 597Q545 696 545 832Q545 935 614 1052Q316 1002 180 733Q116 606 116 459Q116 311 186 179Q256 47 379-33Q499-111 637-111Q967-111 1126 425L1200 674Q1238 802 1288 903M1803-91L1822-100Q1777-176 1684-176Q1576-176 1515-78Q1463 6 1463 120Q1463 333 1582 641Q1633 774 1703 880Q1647 836 1611 791Q1541 703 1458 551Q1441 520 1428 497Q1424 491 1392 432Q1353 362 1317 308L1317 349Q1316 358 1316 369L1318 541L1317 631Q1315 786 1306 829Q1305 845 1298 866Q1260 794 1238 718Q1224 669 1201 563L1187 497Q1185 490 1175 446Q1146 320 1128 265Q1107 201 1067 127Q924-137 649-137Q495-137 363-50Q238 32 161.50 174Q85 316 85 481Q85 636 156 770Q227 904 355 987Q478 1067 633 1078Q761 1235 966 1235Q1264 1235 1358 990Q1412 849 1412 591Q1412 538 1411 516Q1522 726 1609 824Q1772 1008 1979 1050L1979 1027Q1889 1006 1840 959Q1729 853 1623 398Q1573 184 1573 48Q1573-147 1704-147Q1761-147 1803-91Z"  horiz-adv-x="1744" vert-adv-y="2048"  />

      
      <glyph glyph-name="uni0143" unicode="&#x0143;" d="M1400 922L1396 935Q1362 1045 1276 1107Q1168 1185 1031 1185Q863 1185 734 1068Q1013 1029 1096 760Q1115 698 1115 636Q1115 643 1113 593Q1177 662 1214 785L1236 779Q1193 641 1108 548Q1065 314 896 222Q814 177 711 177Q513 177 428 329Q386 404 386 492Q386 539 403 595L426 590Q410 546 410 493Q410 370 489 287Q568 204 690 204Q793 204 890 271Q1019 360 1069 519Q982 470 904 470Q769 470 681 569Q597 665 597 801Q597 915 673 1032L684 1049Q511 1049 367 945Q227 843 163 680Q119 568 119 449Q119 299 190.50 172Q262 45 391-30Q517-103 667-103Q904-103 1030 69Q1078 134 1127 269Q1132 283 1153 346L1164 381Q1175 413 1201 496L1218 552Q1245 637 1256 668Q1314 830 1400 922M1077 557Q1087 598 1087 636Q1087 738 1040 835Q1018 880 989 913Q894 1020 715 1050Q620 926 620 801Q620 679 698 589Q780 495 901 495Q982 495 1077 557M1828-135L1846-150Q1795-219 1700-219Q1550-219 1458-64Q1394 44 1394 263Q1394 358 1406 510Q1414 610 1415 652Q1417 728 1417 750Q1417 836 1405 893Q1349 816 1326 764Q1278 654 1223 427Q1206 347 1158 193Q1071-15 878-90Q783-127 671-127Q510-127 374.50-48Q239 31 162 171.50Q85 312 85 480Q85 820 376 990Q520 1074 669 1074Q662 1074 704 1072Q830 1210 1031 1210Q1294 1210 1445 966Q1525 1031 1659 1060L1664 1037Q1534 1005 1457 943Q1517 843 1521 609L1526 286Q1561 370 1599 500Q1660 709 1735 856Q1862 1103 1995 1103Q2068 1103 2068 1046Q2068 989 2015 989Q1984 989 1960 1013L1947 1026Q1938 1035 1926 1035Q1878 1035 1807 931Q1711 790 1633 520Q1589 367 1578 338Q1562 296 1526 220L1526 187Q1526-56 1619-145Q1665-189 1726-189Q1774-189 1828-135M1766 1314L1634 1238L1620 1253L1730 1363L1751 1387Q1760 1397 1776 1397Q1810 1397 1810 1363Q1810 1339 1766 1314Z"  horiz-adv-x="1717" vert-adv-y="2048"  />

      
      <glyph glyph-name="uni04E8" unicode="&#x04E8;" d="M1168-329L1157-349Q1033-271 971-142Q940-157 909-157Q849-157 793-115Q678-29 661 199L618 199Q488 199 378 267Q268 335 204 450Q140 565 140 703Q140 853 217.50 981.50Q295 1110 427 1184Q559 1258 714 1258Q928 1258 1082 1104Q1174 1178 1237 1178Q1294 1178 1327 1129Q1356 1087 1356 1027Q1356 1022 1354 986Q1410 923 1410 794Q1410 679 1383 560Q1427 546 1448 514L1429 497Q1414 525 1377 534Q1362 477 1342 418Q1312 324 1251 187Q1168 19 1089-58Q1055-94 992-132Q1054-255 1168-329M633 571Q628 590 628 604Q628 654 657 654Q679 654 679 617Q679 601 675 588.50Q671 576 673 560Q679 530 713 520Q765 691 866 854Q954 996 1062 1089Q929 1228 727 1228Q582 1228 455.50 1153.50Q329 1079 252 953Q175 827 175 684Q175 420 398 286Q501 223 624 223L661 223Q668 362 706 496Q666 516 646 546Q637 559 633 571M984-106Q1058-51 1116 44Q1216 210 1294 463Q1306 504 1317 545L1306 545Q1271 545 1242 542.50Q1213 540 1187 535Q1163 500 1135 467Q1057 375 940 294Q935 232 935 199Q935 105 951 9Q959-39 984-106M1328 975Q1303 990 1277 990Q1233 990 1184 941Q1212 884 1230 777L1207 774L1203 794Q1187 872 1167 922Q1034 769 974 516Q1004 520 1029.50 526Q1055 532 1079 538Q1103 544 1126.50 549.50Q1150 555 1177 560Q1291 732 1328 975M962-119Q910 19 910 208Q910 239 914 278Q852 246 795 228Q780 153 780 79Q780-133 907-133Q929-133 962-119M1058 799Q1100 877 1156 947Q1155 950 1148 963Q1123 1011 1105 1036L1095 1050Q1028 956 962 802Q902 662 858 507Q884 507 905.50 508.50Q927 510 947 512Q976 647 1058 799M1331 1000Q1332 1006 1332 1022Q1332 1065 1320 1092Q1293 1154 1239 1154Q1170 1154 1110 1073Q1129 1049 1164 986L1175 966Q1234 1013 1280 1013Q1304 1013 1331 1000M1363 747Q1374 808 1374 864Q1374 926 1351 952Q1310 729 1206 564Q1248 570 1306 570L1324 570Q1347 657 1363 747M915 309Q920 350 940 473L941 479Q941 482 942 486Q922 484 899 482Q876 480 850 480Q825 387 805 289L798 255Q855 275 915 309M941 326Q1069 409 1156 530Q1110 520 1066.50 508.50Q1023 497 968 489Q951 412 941 326Z"  horiz-adv-x="1393" vert-adv-y="2048"  />

      
      <glyph glyph-name="uni50" unicode="&#x50;" d="M1087 628Q1082 760 1033 842Q960 964 818 1016Q750 1041 679 1041Q664 1041 606 1036Q510 925 510 798Q510 670 599.50 579Q689 488 817 488Q968 488 1087 628M1444 1021Q1276 1201 1005 1201Q784 1201 636 1065Q665 1068 679 1068Q863 1068 993 936Q1096 831 1112 668Q1169 758 1169 872Q1169 926 1152 996L1175 1000Q1194 940 1194 877Q1194 737 1113 623Q1113 385 955 256Q849 169 710 169Q520 169 428 328Q385 402 385 489Q385 538 403 589L423 583Q408 525 408 485Q408 366 492 281.50Q576 197 695 197Q889 197 1013 393Q1069 481 1083 586Q961 464 814 464Q624 464 529 631Q485 708 485 798Q485 921 568 1027Q471 1003 398 955Q365 934 327 900Q121 719 121 446Q121 268 213.50 123Q306-22 468-91Q553-127 631-127Q885-127 1026 147Q1068 227 1097 316Q1136 440 1252 756Q1303 886 1444 1021M1462 997Q1403 936 1364 828Q1349 786 1310 639Q1357 684 1416 695L1418 673Q1284 632 1284 508Q1284 470 1303 439Q1325 401 1360 403Q1424 406 1470 515Q1526 648 1526 763Q1526 894 1462 997M1270 444L1257 390Q1228 270 1200 199Q1135 35 989.50-59Q844-153 666-153Q427-153 262 21Q145 145 105 309Q85 391 85 469Q85 704 226 862Q362 1013 597 1061Q757 1224 1012 1224Q1274 1224 1468 1036Q1552 1088 1628 1088Q1653 1088 1685 1081L1680 1057Q1652 1063 1629 1063Q1554 1063 1487 1014Q1616 856 1616 695Q1616 481 1465 394Q1420 368 1373 368Q1298 368 1270 444Z"  horiz-adv-x="1606" vert-adv-y="2048"  />

      
      <glyph glyph-name="uni51" unicode="&#x51;" d="M1040 1069L1060 1090Q914 1225 724 1225Q497 1225 335 1060.50Q173 896 173 671Q173 411 397 282Q501 221 622 221Q650 221 662 222Q671 343 687 414Q705 492 740 586Q800 745 878 872Q925 948 1040 1069M1143 87Q1216 209 1288 444Q1374 723 1374 865Q1374 909 1351 949Q1309 727 1217 576Q1119 415 941 293Q941 280 939.50 255Q938 230 938 217Q938 209 939 204L913 202L913 233Q913 249 915 275Q853 240 793 222Q781 150 781 87Q781-131 907-131Q1033-131 1120 46Q1076 106 996 106Q903 106 845 12L823 23Q891 131 1002 131Q1069 131 1143 87M1152 944Q1131 992 1103 1032L1099 1040Q1097 1044 1093 1048Q1040 970 1007 900Q911 696 850 484Q830 413 800 252Q862 272 917 306Q950 593 1036 764Q1082 856 1152 944M1329 971Q1298 988 1276 988Q1236 988 1181 939Q1205 880 1224 778L1201 771Q1185 857 1163 916Q1094 835 1055 749Q1035 704 1008 625Q959 480 943 324Q1250 527 1329 971M1332 996Q1333 1003 1333 1024Q1333 1072 1311 1109Q1285 1153 1240 1153Q1175 1153 1106 1070Q1131 1038 1165 973Q1168 967 1171 962Q1232 1011 1280 1011Q1305 1011 1332 996M1169 69Q1224 11 1255-51L1316-172Q1422-383 1542-383Q1589-383 1621.50-352.50Q1654-322 1654-275Q1654-245 1624-234Q1572-215 1572-158Q1572-82 1631-82Q1706-82 1706-188Q1706-341 1593-403Q1539-433 1468-433Q1346-433 1264-328Q1226-279 1210-213L1180-87Q1167-31 1139 20Q1020-156 912-156Q777-156 706-5Q670 73 662 196Q652 195 628 195Q342 195 204 443Q140 558 140 699Q140 867 237 1008Q334 1149 490 1214Q596 1258 706 1258Q915 1258 1082 1106Q1164 1176 1240 1176Q1298 1176 1330 1124Q1358 1080 1358 1019Q1358 1004 1355 981Q1410 926 1410 787Q1410 575 1300 322Q1246 198 1169 69Z"  horiz-adv-x="1416" vert-adv-y="2048"  />

      
      <glyph glyph-name="uni52" unicode="&#x52;" d="M1444 1032Q1260 1205 1019 1205Q795 1205 644 1073L683 1075Q868 1084 1003 938Q1097 836 1116 672Q1174 772 1174 884Q1174 941 1148 1004L1171 1014Q1199 948 1199 877Q1199 751 1117 626Q1111 361 915 236Q824 178 710 178Q573 178 480.50 266.50Q388 355 388 491Q388 541 406 599L428 591Q411 534 411 491Q411 331 552 246Q617 207 693 207Q887 207 1013 400Q1071 489 1086 592Q971 477 822 477Q733 477 656 522Q492 618 492 811Q492 915 576 1038Q377 1001 235 810Q121 657 121 456Q121 238 249 80Q318-5 421-60Q529-118 633-118Q830-118 957 47Q1051 170 1133 424L1187 592Q1248 783 1316 887Q1353 944 1444 1032M1089 631Q1085 892 885 999Q788 1051 664 1051Q647 1051 614 1046Q516 925 516 809Q516 633 668 542Q738 500 821 500Q975 500 1089 631M1621-89L1640-100Q1581-195 1492-195Q1396-195 1355-110Q1335-68 1335-18Q1335 72 1389 240L1431 371Q1437 390 1437 419Q1437 472 1401 500L1394 500L1361 497Q1360 497 1359 498L1349 500Q1326 508 1326 523Q1326 543 1359 543Q1382 543 1415 525Q1524 622 1524 802Q1524 930 1462 1009Q1392 935 1334 742Q1301 630 1287 556L1262 419Q1183-13 839-119Q754-145 670-145Q511-145 375-59Q242 24 163.50 166.50Q85 309 85 477Q85 791 339 970Q457 1053 606 1072Q766 1229 1020 1229Q1263 1229 1471 1050Q1541 1097 1615 1097Q1641 1097 1679 1089L1676 1065Q1639 1073 1615 1073Q1551 1073 1489 1032Q1617 904 1617 756Q1617 568 1442 507Q1520 437 1520 336Q1520 265 1483 122Q1449-9 1449-62Q1449-155 1522-155Q1578-155 1621-89Z"  horiz-adv-x="1635" vert-adv-y="2048"  />

      
      <glyph glyph-name="uni53" unicode="&#x53;" d="M1148 506L1153 535Q1134 527 1104 519Q1045 302 894 220Q807 173 709 173Q517 173 428 326Q386 398 386 484Q386 539 407 594L428 588Q409 528 409 483Q409 368 491.50 284Q574 200 689 200Q861 200 978 346Q1035 417 1069 513Q1014 506 980 506Q742 506 624 691Q569 777 569 881Q569 954 602 1035Q315 986 184 717Q121 588 121 449Q121 301 191 167Q261 33 383.50-45.50Q506-124 645-124Q912-124 1040 133Q1062 178 1083 237Q1099 282 1119 362Q1132 413 1148 506M1266 627L1266 616Q1432 745 1484 899Q1504 958 1504 1010Q1504 1090 1443 1090Q1395 1090 1352 1026Q1289 932 1272 716Q1267 653 1267 647L1267 636Q1266 632 1266 627M1075 538Q1086 596 1086 638Q1086 870 883 988Q790 1042 677 1042Q649 1042 638 1041Q597 956 597 879Q597 721 715 623Q825 530 986 530Q1027 530 1075 538M1266 587L1266 536Q1266 233 1142 60Q988-155 695-155Q441-155 277 5Q154 125 108 299Q85 386 85 469Q85 618 153.50 750Q222 882 345 965Q468 1048 619 1066Q758 1262 952 1262Q1123 1262 1265 1103L1249 1086Q1109 1240 954 1240Q759 1240 652 1066L682 1066Q823 1066 946 977Q1050 902 1095 758Q1116 691 1116 627Q1116 597 1108 547Q1124 549 1119 549L1133 554L1146 558Q1147 559 1148 559Q1149 559 1150 560L1156 562L1165 620Q1190 782 1245 913Q1328 1112 1444 1112Q1542 1112 1542 990Q1542 882 1464 772Q1405 689 1266 587Z"  horiz-adv-x="1382" vert-adv-y="2048"  />

      
      <glyph glyph-name="uni54" unicode="&#x54;" d="M1085 603Q1086 616 1086 645Q1086 784 1002.50 895.50Q919 1007 785 1040Q736 1052 664 1052Q573 948 573 812Q573 683 651 589Q733 490 860 490Q972 490 1085 603M1437 984Q1361 1002 1304 1028L1165 1090Q997 1165 906 1165Q779 1165 689 1075Q881 1065 993 949.50Q1105 834 1115 642Q1148 698 1177 803L1201 795Q1170 674 1114 594Q1099 420 992 304Q879 180 709 180Q573 180 479 270Q385 360 385 495Q385 542 402 602L426 596Q409 536 409 495Q409 329 551 246Q617 207 693 207Q830 207 942 316Q1045 416 1078 556Q971 466 859 466Q678 466 590 636Q548 717 548 810Q548 947 630 1050Q470 1028 358 939Q203 817 147 638Q119 549 119 456Q119 232 265 62Q419-116 639-116Q845-116 984 91Q1071 222 1151 483L1197 631Q1226 716 1256 774Q1310 880 1437 984M1468 977Q1389 913 1342 778Q1315 701 1286 546Q1234 274 1178 166Q1086-10 905-91Q787-143 665-143Q398-143 231 68Q84 253 84 480Q84 723 247 892Q408 1058 652 1076Q782 1209 1007 1209Q1112 1209 1269 1155Q1581 1048 1706 1048Q1812 1048 1875 1110Q1899 1134 1925 1168L1943 1154Q1813 962 1588 962Q1530 962 1468 977Z"  horiz-adv-x="1367" vert-adv-y="2048"  />

      
      <glyph glyph-name="unida" unicode="&#xda;" d="M1618-61L1638-71Q1572-226 1470-226Q1361-226 1311-85Q1287-18 1287 59Q1287 87 1296 159Q1197-54 1132-106Q1097-134 1058-134Q997-134 963-68Q935-14 935 53Q935 164 1028 348L1118 526Q1227 742 1227 873Q1227 1046 1092 1152Q967 1250 789 1250Q528 1250 349 1053Q183 870 183 645Q183 375 393 242Q491 180 603 180Q844 180 984 398L1005 388Q944 282 835 219Q726 156 603 156Q404 156 270 304Q140 447 140 648Q140 899 339 1088Q534 1273 787 1273Q1002 1273 1152 1146Q1311 1012 1311 801Q1311 725 1289 653Q1277 614 1244 535Q1233 510 1209 454L1194 418L1106 213L1039 64Q1009-3 1009-45Q1009-107 1062-107Q1186-107 1367 413L1444 634Q1500 795 1610 913Q1742 1053 1892 1053Q2015 1053 2015 961Q2015 898 1956 898Q1914 898 1915 936L1916 974Q1917 1026 1859 1026Q1752 1026 1663 852Q1587 703 1532 520Q1521 484 1458 259Q1390 17 1390-63Q1390-201 1473-201Q1562-201 1618-61M1672 1314L1540 1238L1526 1253L1636 1363L1657 1387Q1666 1397 1682 1397Q1716 1397 1716 1363Q1716 1339 1672 1314Z"  horiz-adv-x="1636" vert-adv-y="2048"  />

      
      <glyph glyph-name="uni56" unicode="&#x56;" d="M1195-154L1178-157Q1067 4 1067 178Q1067 268 1113 479Q1153 662 1161 725Q1170 795 1170 852Q1170 1078 991 1169Q904 1213 789 1213Q539 1213 361 1034Q183 855 183 605Q183 326 392 193Q489 131 609 131Q790 131 922.50 262Q1055 393 1055 574Q1055 697 975 792Q891 892 771 892Q665 892 564 805L550 825Q651 915 767 915Q905 915 994 810Q1079 710 1079 570Q1079 429 988 302Q848 107 613 107Q337 107 203 356Q140 472 140 607Q140 867 339 1053Q533 1236 795 1236Q1009 1236 1144.50 1103.50Q1280 971 1280 758Q1280 665 1265 594L1186 220Q1158 87 1158-8Q1158-65 1179-104Q1233 152 1349 399Q1532 788 1746 986Q1924 1151 2065 1151Q2145 1151 2145 1092Q2145 1063 2123.50 1042Q2102 1021 2073 1021Q2034 1021 2013 1050L1996 1074Q1984 1091 1965 1091Q1932 1091 1849 1034Q1806 1005 1772 975Q1654 873 1541 697Q1327 364 1232 14Q1217-40 1203-113L1195-154Z"  horiz-adv-x="1534" vert-adv-y="2048"  />

      
      <glyph glyph-name="uni57" unicode="&#x57;" d="M1502-156L1488-158Q1378-3 1378 187Q1378 314 1442 516L1455 557L1433 515Q1240 146 1193-154L1177-157Q1068 16 1068 190Q1068 274 1086 354Q1094 391 1129 545Q1177 759 1177 856Q1177 1083 991 1173Q902 1216 781 1216Q532 1216 357 1035Q182 854 182 604Q182 323 392 191Q490 129 611 129Q792 129 923.50 259Q1055 389 1055 570Q1055 754 912 850Q847 894 772 894Q669 894 565 807L549 824Q656 916 772 916Q907 916 996 807Q1079 704 1079 566Q1079 444 1014.50 337.50Q950 231 842.50 168.50Q735 106 611 106Q338 106 203 357Q140 473 140 609Q140 949 464 1150Q604 1237 781 1237Q994 1237 1134 1113Q1280 983 1280 773Q1280 687 1262 581Q1259 562 1237 450L1223 378Q1159 49 1159-3Q1159-54 1177-108Q1220 113 1298 293Q1344 400 1421 544Q1433 567 1536 734L1560 773L1580 760Q1573 717 1540 524L1508 339Q1506 329 1488 222Q1463 74 1463 3Q1463-52 1486-110Q1538 129 1620 319Q1806 747 2037 963Q2233 1146 2373 1146Q2455 1146 2455 1085Q2455 1057 2432.50 1037.50Q2410 1018 2382 1018Q2343 1018 2317 1059Q2300 1087 2277 1087Q2244 1087 2158 1030Q2036 949 1914 789Q1730 548 1610 231Q1567 117 1525-47Q1509-110 1502-156Z"  horiz-adv-x="1851" vert-adv-y="2048"  />

      
      <glyph glyph-name="uni58" unicode="&#x58;" d="M1297 538Q1314 719 1314 826Q1314 1056 1156 1154Q1082 1200 980 1200Q808 1200 675 1061L694 1061Q876 1061 999 926Q1098 817 1113 640Q1151 690 1189 799L1211 795Q1176 678 1114 603Q1107 397 972 268Q860 161 701 161Q567 161 473 250.50Q379 340 379 473Q379 516 397 582L421 575Q403 517 403 471Q403 309 547 224Q613 185 691 185Q800 185 904 263Q1004 337 1047 442Q1067 490 1081 566Q971 481 866 481Q689 481 602 644Q561 721 561 810Q561 904 626 1031Q327 993 184 714Q116 582 116 436Q116 289 185 164Q255 36 379-39Q500-112 644-112Q871-112 1019 92Q1101 205 1253 465Q1259 476 1297 538M1084 606Q1085 618 1085 646Q1085 808 970 922Q855 1036 693 1036Q669 1036 658 1035Q585 923 585 809Q585 633 726 545Q791 504 867 504Q1002 504 1084 606M1702-106L1719-117Q1650-208 1550-208Q1413-208 1336-91Q1270 10 1270 155Q1270 251 1290 480Q1227 375 1177 277Q1081 90 1005 9Q869-135 653-135Q495-135 365-58Q235 19 160 158Q85 297 85 462Q85 699 233 859Q308 940 411 992Q538 1056 644 1057Q775 1222 985 1222Q1117 1222 1227 1155Q1278 1124 1319 1076Q1422 955 1422 759L1422 742L1450 784Q1557 945 1667 1021Q1774 1095 1851 1095Q1892 1095 1922 1074Q1956 1050 1956 1011Q1956 980 1936 953.50Q1916 927 1886 927Q1827 927 1827 996L1827 1006Q1833 1030 1833 1035Q1833 1056 1804 1056Q1736 1056 1637 970Q1555 899 1508 825L1448 731Q1444 723 1423 692L1423 661Q1423 658 1422 646L1416 528L1409 365Q1408 351 1403 248Q1398 153 1398 100Q1398-95 1469-151Q1509-182 1562-182Q1636-182 1702-106Z"  horiz-adv-x="1605" vert-adv-y="2048"  />

      
      <glyph glyph-name="unidd" unicode="&#xdd;" d="M1104 350Q1050 296 998 296Q920 296 873 358Q831 413 828 494Q819 493 795 493Q579 493 479 669Q431 753 431 853Q431 921 462 1001Q360 954 282 871Q119 698 119 452Q119 235 253 75Q351-43 497-93Q567-117 632-117Q957-117 1104 350M829 516Q849 630 929 746L1001 851Q1071 953 1071 1030Q1071 1118 980 1168Q907 1208 810 1208Q618 1208 516 1051Q599 1077 674 1077Q818 1077 955 982L942 962Q805 1053 673 1053Q593 1053 496 1015Q455 928 455 853Q455 709 553 612Q651 515 795 515Q819 515 829 516M481 1040Q591 1231 810 1231Q979 1231 1069 1124Q1136 1044 1136 954Q1136 840 1038 689Q983 604 961 557Q1045 586 1135 683L1154 670Q1078 571 946 522Q922 459 922 419Q922 321 1002 321Q1092 321 1162 527L1209 666Q1263 825 1379 942Q1505 1069 1627 1069Q1715 1069 1757 1014Q1773 993 1773 963Q1773 906 1720 906Q1672 906 1672 955Q1672 970 1675 985Q1676 990 1676 1002Q1676 1045 1613 1045Q1467 1045 1374 852Q1329 758 1304 632L1274 479Q1212 163 1083 29Q1006-51 891.50-97.50Q777-144 664-144Q506-144 370-58Q238 26 161.50 169Q85 312 85 480Q85 741 268 910Q357 992 481 1040M1398 1314L1266 1238L1252 1253L1362 1363L1383 1387Q1392 1397 1408 1397Q1442 1397 1442 1363Q1442 1339 1398 1314Z"  horiz-adv-x="1353" vert-adv-y="2048"  />

      
      <glyph glyph-name="uni5a" unicode="&#x5a;" d="M965 54Q845 145 726 172Q683 159 662 159Q622 159 622 182Q622 205 679 205Q701 205 726 196Q882 244 975 363.50Q1068 483 1068 644Q1068 886 837 997Q819 963 819 935Q819 901 847 892Q854 890 865 891Q874 892 886 893Q905 893 920.50 872.50Q936 852 936 832Q936 768 870 768Q829 768 805 810Q784 846 784 890Q784 937 814 1004Q744 1030 677 1030Q440 1030 276 846Q118 668 118 429Q118 205 262 44Q412-123 633-123Q800-123 965 54M993 84Q1105 226 1245 494Q1277 557 1372 714Q1457 842 1606 968Q1498 983 1291 1077Q1133 1149 1061 1149Q946 1149 849 1016Q1104 900 1104 630Q1104 513 1044.50 403Q985 293 887 234Q848 211 770 184Q840 162 993 84M1049-7Q865-148 650-148Q406-148 243 26Q85 196 85 442Q85 697 249 873Q417 1052 670 1052Q748 1052 826 1024Q957 1216 1184 1216Q1281 1216 1464.50 1137Q1648 1058 1744 1058Q1855 1058 1922 1191L1942 1183Q1909 1095 1828 1029Q1741 959 1652 964Q1636 965 1637 965Q1537 873 1485 770Q1468 737 1392 535Q1284 248 1183 123Q1154 87 1101 38Q1294-44 1434-44Q1603-44 1664 81Q1681 116 1681 141Q1681 173 1652 173Q1643 173 1620.50 160.50Q1598 148 1579 148Q1554 148 1535 167Q1516 186 1516 211Q1516 245 1539.50 269.50Q1563 294 1597 294Q1650 294 1679 245Q1704 204 1704 148Q1704 52 1628-40Q1537-150 1396-150Q1312-150 1214-103Q1182-87 1049-7Z"  horiz-adv-x="1803" vert-adv-y="2048"  />

      
      <glyph glyph-name="uni5b" unicode="&#x5b;" d="M32-137L17-137L346 1051L361 1051L469 1052Q486 1052 531 1053Q571 1054 594 1054L608 1054L600 1021L587 1022Q522 1027 442 1028L117-112Q173-112 286-105L277-139L261-139Q238-139 238-139Q231-139 222-138L156-138Q107-138 107-138Q24-137 32-137Z"  horiz-adv-x="463" vert-adv-y="2048"  />

      
      <glyph glyph-name="uni5c" unicode="&#x5c;" d="M509-246L448-246L168 1167L230 1167L509-246Z"  horiz-adv-x="614" vert-adv-y="2048"  />

      
      <glyph glyph-name="uni5d" unicode="&#x5d;" d="M431 1052L446 1052L117-136L102-136L-6-137Q-45-136-131-138L-145-139L-137-106L-124-106Q-100-106-51.50-109Q-3-112 21-112L346 1027Q292 1027 177 1020L186 1054L202 1054Q264 1054 264 1054Q277 1054 292 1053Q305 1053 307 1053L380 1053Q393 1053 401 1053Q435 1052 431 1052Z"  horiz-adv-x="463" vert-adv-y="2048"  />

      
      <glyph glyph-name="uni5f" unicode="&#x5f;" d="M1024-328L0-328L0-273L1024-273L1024-328Z"  horiz-adv-x="1024" vert-adv-y="2048"  />

      
      <glyph glyph-name="uni60" unicode="&#x60;" d="M327 619L313 604L180 680Q136 705 136 727Q136 763 170 763Q185 763 196 753L217 729L327 619Z"  horiz-adv-x="463" vert-adv-y="2048"  />

      
      <glyph glyph-name="unie1" unicode="&#xe1;" d="M256 411Q256 492 212 492Q174 492 96 223Q69 130 69 77Q69 27 103 28Q152 30 204 177Q215 208 230 264Q256 360 256 411M455 277L477 269L466 242Q433 161 414 122Q351-7 286-7Q211-7 196 101Q145-3 88-3Q35-3 8 54Q-13 98-13 157Q-13 343 106 464Q159 518 209 518Q254 518 277 444L294 507Q323 503 351 503Q373 503 396 507L386 468Q377 434 356 359Q349 334 335 285L299 152Q275 63 275 53Q275 26 302 26Q358 26 455 277M360 680L228 604L214 619L324 729L345 753Q354 763 370 763Q404 763 404 729Q404 705 360 680Z"  horiz-adv-x="450" vert-adv-y="2048"  />

      
      <glyph glyph-name="uni62" unicode="&#x62;" d="M289 938L64 120Q54 84 54 62Q54 20 86 20Q131 20 184 106Q210 147 243 224Q197 268 197 323Q197 380 230 447Q253 494 280 494Q312 494 312 440Q312 365 270 240Q283 236 293 236Q324 236 345 277L367 269Q343 212 294 212Q284 212 262 217Q168-5 75-5Q-27-5-27 121Q-27 156-7 228L189 938Q216 933 235 933Q254 933 289 938Z"  horiz-adv-x="340" vert-adv-y="2048"  />

      
      <glyph glyph-name="uni63" unicode="&#x63;" d="M330 277L352 269L339 234Q249-7 121-7Q57-7 21 52Q-10 102-10 170Q-10 272 54 386Q127 517 222 517Q309 517 309 407Q309 314 252 257Q226 231 199 231Q161 231 161 278Q161 348 234 358Q283 365 283 413Q283 490 230 490Q174 490 110 257Q76 134 76 78Q76 21 129 21Q234 21 330 277Z"  horiz-adv-x="324" vert-adv-y="2048"  />

      
      <glyph glyph-name="uni64" unicode="&#x64;" d="M257 413Q257 490 217 489Q187 488 143 358Q137 340 102 219Q76 130 74 72Q72 30 104 30Q156 30 210 194Q257 338 257 413M454 277L477 269L460 228Q412 112 398 87Q346-7 289-7Q208-7 199 102Q147-4 89-4Q38-4 10 54Q-12 100-12 156Q-12 340 108 465Q160 519 212 519Q264 519 280 444L418 943Q442 937 463 937Q487 937 517 943L288 105Q279 72 279 55Q279 25 304 25Q349 25 444 253L454 277Z"  horiz-adv-x="449" vert-adv-y="2048"  />

      
      <glyph glyph-name="uni65" unicode="&#x65;" d="M86 174Q163 174 207 244Q262 332 262 437Q262 486 228 486Q196 486 155 386Q107 269 86 174M339 277L361 269Q325 179 295 125Q221-7 117-7Q55-7 17 42Q-18 87-18 151Q-18 250 47 372Q122 513 214 513Q309 513 309 393Q309 255 206 186Q161 156 80 148Q74 112 74 92Q74 18 126 18Q233 18 330 255L339 277Z"  horiz-adv-x="334" vert-adv-y="2048"  />

      
      <glyph glyph-name="uni66" unicode="&#x66;" d="M-49-321L35-15Q8-11-1-11Q-93-11-153-122Q-204-216-204-315Q-204-355-186-387Q-165-426-128-426Q-78-426-49-321M197-128L176-136Q173-131 168-121Q155-95 145-81Q136-72 123-63L63-292Q18-462-99-462Q-160-462-195-418Q-228-377-228-315Q-228-201-170-102Q-102 13 4 13Q19 13 44 8L143 371Q122 364 109 364Q100 364 63 372Q49 322 28 269L5 277Q12 292 12 296Q30 346 41 382Q4 401 4 441Q4 479 33 479Q67 479 67 424Q67 413 63 400Q89 391 112 391Q135 391 151 400L225 655Q258 768 269 796Q333 955 452 955Q555 955 555 835Q555 782 529 741Q499 692 449 692Q402 692 402 746Q402 804 461 810Q516 816 516 865Q516 925 462 925Q398 925 355 769L270 460Q306 477 326 477Q390 477 404 410L381 400Q363 453 327 453Q302 453 259 422L131-36Q175-71 197-128Z"  horiz-adv-x="322" vert-adv-y="2048"  />

      
      <glyph glyph-name="uni01F5" unicode="&#x01F5;" d="M361 680L229 604L215 619L325 729L346 753Q355 763 371 763Q405 763 405 729Q405 705 361 680M255 411Q255 487 213 486Q185 485 163 423L122 307Q72 166 68 73Q66 28 100 28Q151 28 202 179Q255 336 255 411M61-335L137-58Q47-83-14-152Q-77-225-77-316Q-77-355-60-386Q-40-424-4-424Q37-424 61-335M257 4L175-282Q127-451 8-451Q-102-451-102-316Q-102-115 146-27L164 41Q124-7 88-7Q38-7 8 50Q-17 97-17 151Q-17 332 103 459Q156 515 205 515Q254 515 278 443L295 503Q319 499 344 499Q369 499 397 503L268 44Q340 97 417 277L440 269L431 246Q364 76 257 4Z"  horiz-adv-x="412" vert-adv-y="2048"  />

      
      <glyph glyph-name="uni68" unicode="&#x68;" d="M417 277L440 269L430 243Q392 145 382 122Q324-7 249-7Q211-7 185.50 23.50Q160 54 160 93Q160 150 208 272.50Q256 395 256 444Q256 476 234 476Q194 476 143 367Q119 316 104 262L32 4L12 5Q-8 6-17 6Q-10 6-56 4L-70 2L189 939Q224 933 239 933Q259 933 288 940L151 437Q214 512 265 512Q340 512 340 429Q340 372 289 222L253 116Q241 81 241 53Q241 21 267 21Q321 21 417 277Z"  horiz-adv-x="413" vert-adv-y="2048"  />

      
      <glyph glyph-name="uni69" unicode="&#x69;" d="M234 674Q234 604 161 604Q106 604 106 657Q106 730 176 730Q234 730 234 674M228 277L250 269L230 217Q144-7 60-7Q19-7-8 30Q-32 64-32 106Q-32 133-9 219L68 507Q91 504 117 504Q137 504 169 509L58 100Q49 67 49 52Q49 23 74 23Q111 23 160 119Q185 168 228 277Z"  horiz-adv-x="223" vert-adv-y="2048"  />

      
      <glyph glyph-name="uni6a" unicode="&#x6a;" d="M-157-308L-88-55Q-180-88-238-156Q-302-230-302-322Q-302-424-228-424Q-195-424-176-366L-157-308M238 672Q238 599 166 599Q106 599 106 651Q106 725 178 725Q238 725 238 672M192 277L214 269Q160 127 106 70Q72 34 31 7L-51-283Q-99-453-211-453Q-325-453-325-319Q-325-196-226-110Q-183-73-76-22L70 503Q92 501 90 501Q113 498 123 498Q135 498 170 503L41 45Q122 107 192 277Z"  horiz-adv-x="187" vert-adv-y="2048"  />

      
      <glyph glyph-name="uni6b" unicode="&#x6b;" d="M421 277L443 269L433 241Q393 128 368 86Q313-7 242-7Q204-7 178 17.50Q152 42 152 80Q152 122 212 295Q218 312 218 326Q218 366 158 366Q150 366 130 363L29 1Q4 5-18 5Q-33 5-70-1L188 938Q211 934 228 934Q252 934 288 940L136 389L154 389Q200 389 229 425L271 478Q308 525 360 525Q421 525 421 469Q421 412 364 412Q339 412 320 431L308 443Q304 450 296 450Q285 450 256 420Q256 420 218 380Q303 349 303 287Q303 252 275 179Q251 116 244 92Q240 78 240 58Q240 22 264 22Q321 22 410 249L421 277Z"  horiz-adv-x="416" vert-adv-y="2048"  />

      
      <glyph glyph-name="uni6c" unicode="&#x6c;" d="M227 277L250 269Q241 252 241 249L210 172Q138-7 57-7Q-29-7-29 107Q-29 150-4 241L188 940L234 937Q251 937 286 941L78 180L69 142L59 102Q50 66 50 52Q50 23 73 23Q125 23 219 257L227 277Z"  horiz-adv-x="222" vert-adv-y="2048"  />

      
      <glyph glyph-name="uni6d" unicode="&#x6d;" d="M626 277L649 269L636 237Q584 109 572 87Q521-7 458-7Q417-7 391 23Q365 53 365 95Q365 151 413 274Q461 397 461 446Q461 475 440 475Q379 475 309 267Q302 246 235 3Q217 5 189 5Q161 5 134 2Q150 59 229 338Q256 434 256 454Q256 477 237 477Q168 477 99 252Q76 169 31 3Q13 6 5 6Q-32 6-69 2L69 503Q93 499 114 499Q133 499 168 504L151 434Q210 512 264 512Q336 512 346 416Q408 510 471 510Q545 510 545 418Q545 360 497 228Q446 88 446 53Q446 19 472 19Q528 19 626 277Z"  horiz-adv-x="621" vert-adv-y="2048"  />

      
      <glyph glyph-name="uni0144" unicode="&#x0144;" d="M419 277L442 269L428 235Q383 126 360 79Q317-8 250-8Q210-8 185.50 23Q161 54 161 94Q161 146 199 250Q245 375 251.50 401Q258 427 258 448Q258 474 238 474Q203 474 159 395Q126 336 111 284L78 173Q45 64 32 2L18 4L-26 6Q-40 7-71 1L70 503L90 501Q120 498 128 498Q138 498 172 501L152 436Q216 509 268 509Q302 509 323 482.50Q344 456 344 421Q344 363 290 214Q241 78 241 51Q241 20 266 20Q316 20 405 242L419 277M354 680L222 604L208 619L318 729L339 753Q348 763 364 763Q398 763 398 729Q398 705 354 680Z"  horiz-adv-x="414" vert-adv-y="2048"  />

      
      <glyph glyph-name="uni04E9" unicode="&#x04E9;" d="M237 151Q251 179 264 226Q277 273 284 311Q291 349 291 380Q291 487 233 487Q195 487 145 364Q121 304 91 190Q70 109 70 75Q70 18 118 18Q185 18 237 151M264 158L257 140Q196-7 114-7Q55-7 18 46Q-15 93-15 155Q-15 339 111 460Q167 514 221 514Q315 514 315 388Q315 314 281 205L264 158M89 255Q117 267 142.50 266Q168 265 193.50 259Q219 253 244 245Q269 237 295 234Q354 229 368 277L391 269Q361 203 290 211Q266 214 199.50 234.50Q133 255 86 225Q88 232 87.50 240Q87 248 89 255Z"  horiz-adv-x="363" vert-adv-y="2048"  />

      
      <glyph glyph-name="uni70" unicode="&#x70;" d="M420 277L443 269L431 240Q391 144 380 120Q320-7 249-7Q208-7 183 24Q158 55 158 97Q158 134 174 181Q176 186 192 233Q196 244 206 273L223 320Q255 408 255 446Q255 477 236 477Q193 477 141 364Q107 290 86 213L-92-436Q-122-434-142-434Q-175-434-194-438L105 630L123 630Q128 630 138 629Q148 628 153 628Q167 628 205 633L152 440Q209 512 267 512Q342 512 342 421Q342 377 312 286Q298 248 271 172Q241 87 241 63Q241 21 271 21Q323 21 420 277Z"  horiz-adv-x="415" vert-adv-y="2048"  />

      
      <glyph glyph-name="uni71" unicode="&#x71;" d="M255 420Q255 484 216 484Q194 484 167 417Q126 315 88 170Q73 113 73 80Q73 25 100 26Q147 28 196 155Q255 309 255 420M437 277L459 269Q426 210 387 142L368 109Q346 72 307 2L257-92Q207-187 189-251L137-441Q111-439 87-439Q57-439 33-442L168 41Q120-7 89-7Q39-7 9 49Q-15 94-15 149Q-15 328 106 456Q158 511 210 511Q265 511 280 438L298 500L314 499Q324 498 352 497Q364 497 398 500L242-62Q255-41 270-14Q272-10 275-4L391 197Q397 208 413 235Q416 241 425 257L437 277Z"  horiz-adv-x="431" vert-adv-y="2048"  />

      
      <glyph glyph-name="uni72" unicode="&#x72;" d="M303 277L325 269L313 238Q270 128 248 88Q193-7 132-7Q94-7 68 28Q44 60 44 99Q44 138 59 184Q64 196 76 230L97 292Q136 407 136 442Q136 467 114 489L103 462L73 379L28 269L5 277L17 306Q37 354 51 393L93 509Q58 541 58 578Q58 604 74.50 629.50Q91 655 115 655Q150 655 150 616Q150 587 124 518Q173 486 188 469Q214 440 214 396Q214 352 183 255Q173 224 149 144L132 84Q125 59 125 45Q125 20 146 20Q200 20 293 252L303 277Z"  horiz-adv-x="298" vert-adv-y="2048"  />

      
      <glyph glyph-name="uni73" unicode="&#x73;" d="M28 269L5 277L17 306Q137 595 248 595Q301 595 301 547Q301 499 256 499Q234 499 221 514L210 527Q200 539 188 539Q162 539 162 498Q162 466 180 417L197 371Q221 306 221 250Q221 153 164 76Q102-9 8-9Q-45-9-80 23.50Q-115 56-115 108Q-115 159-87 196Q-56 237-7 237Q52 237 52 186Q52 135 0 135Q-13 135-20 139L-36 145Q-47 149-53 149Q-85 149-85 98Q-85 68-66 44.50Q-47 21-18 21Q67 21 120 231Q143 322 143 418Q143 453 139 492Q100 437 37 290L28 269Z"  horiz-adv-x="274" vert-adv-y="2048"  />

      
      <glyph glyph-name="uni74" unicode="&#x74;" d="M227 277L250 269L241 247Q191 126 172 89Q121-7 61-7Q17-7-9 30Q-32 64-32 109Q-32 143-15 203L60 467L9 467L13 488L66 488L122 697Q128 695 168 695Q192 695 202 696L222 698L162 488L214 488L210 467L157 467L60 115Q48 71 48 58Q48 25 74 25Q128 25 227 277Z"  horiz-adv-x="222" vert-adv-y="2048"  />

      
      <glyph glyph-name="unifa" unicode="&#xfa;" d="M436 277L458 269Q408 141 383 93Q329-11 260-11Q178-11 178 108L178 128Q139 61 121 38Q85-8 33-8Q-40-8-40 75Q-40 107-25 162L68 504Q101 501 117 501Q143 501 171 505L53 73Q49 58 49 49Q49 26 65 26Q109 26 178 187Q210 262 231 337L264 455Q268 469 278 503L288 503Q289 502 293 502L340 499Q343 499 356 502L377 504L266 98Q257 65 257 51Q257 20 282 20Q338 20 423 243L436 277M344 680L212 604L198 619L308 729L329 753Q338 763 354 763Q388 763 388 729Q388 705 344 680Z"  horiz-adv-x="431" vert-adv-y="2048"  />

      
      <glyph glyph-name="uni76" unicode="&#x76;" d="M354 277L376 269Q351 221 309 221Q293 221 273 230Q176-7 72-7Q31-7 1 28.50Q-29 64-29 106Q-29 148-9 220L70 504Q80 502 90 502L113 502L145 503Q152 503 169 506L61 115Q50 75 50 64Q50 22 87 22Q130 22 186 112Q224 173 250 240Q212 288 212 349Q212 395 230 447Q253 515 289 515Q322 515 322 461Q322 369 280 253Q302 248 309 248Q334 248 354 277Z"  horiz-adv-x="349" vert-adv-y="2048"  />

      
      <glyph glyph-name="uni77" unicode="&#x77;" d="M566 277L588 269Q563 221 521 221Q505 221 485 230Q397-7 283-7Q239-7 211 29Q183 65 183 110Q183 129 184 136Q112-6 33-6Q-41-6-41 79Q-41 106-26 160L70 507Q102 505 113 505Q89 505 150 507Q157 507 159 508L172 508L57 95Q45 52 45 43Q45 29 57 29Q120 29 204 252Q239 344 266 454Q268 461 272 478Q273 485 279 505Q294 502 314 502Q347 502 378 506L272 120Q260 76 260 64Q260 23 301 23Q375 23 461 242Q423 302 423 357Q423 437 464 491Q482 515 500 515Q534 515 534 458Q534 387 492 253Q514 248 522 248Q546 248 566 277Z"  horiz-adv-x="561" vert-adv-y="2048"  />

      
      <glyph glyph-name="uni78" unicode="&#x78;" d="M443 277L465 269Q430 178 388 93Q339-7 267-7Q166-7 166 130L148 101Q82-6 22-6Q-26-6-26 49Q-26 73-9 92.50Q8 112 32 112Q60 112 67 87Q72 67 81 67Q120 67 166 187L168 375Q169 468 143 468Q106 468 28 269L5 277L15 301Q62 414 87 453Q125 512 177 512Q261 512 263 362L285 396Q354 503 397 503Q448 503 448 447Q448 392 399 392Q381 392 357 415Q348 424 342 424Q328 424 263 305L263 279L262 165L263 91Q264 28 298 28Q333 28 386 147L431 248Q433 256 443 277Z"  horiz-adv-x="437" vert-adv-y="2048"  />

      
      <glyph glyph-name="unifd" unicode="&#xfd;" d="M42-340L123-48L94-62Q-96-154-96-315Q-96-353-78-385Q-56-424-21-423Q19-422 42-340M400 277L422 269Q380 165 351 120Q308 53 237 3L156-280Q107-452-9-452Q-59-452-91-407Q-120-366-120-314Q-120-179 5-88Q53-53 132-15L165 105Q95-7 34-7Q1-7-21.50 17Q-44 41-44 74Q-44 104-30 153L70 505Q92 503 106 503Q135 503 167 507L48 68Q46 54 46 51Q46 26 64 26Q86 26 128 92Q187 185 232 341L279 505Q312 501 326 501Q337 501 357 503L377 505L250 45Q331 108 391 255L400 277M335 680L203 604L189 619L299 729L320 753Q329 763 345 763Q379 763 379 729Q379 705 335 680Z"  horiz-adv-x="395" vert-adv-y="2048"  />

      
      <glyph glyph-name="uni7a" unicode="&#x7a;" d="M340 277L363 269L355 249Q307 130 290 98Q233-7 177-7Q141-7 102 31Q71 62 51 62Q23 62-2-11L-27-9Q15 120 74 192Q107 232 161 283Q257 374 288 420Q242 384 209 384Q191 384 177 389L134 404Q119 409 79 419Q55 340 28 269L5 277Q49 395 73 498L81 532L106 532L91 465Q134 501 160 501Q189 501 228 480.50Q267 460 281 460Q316 460 341 511L363 501Q302 377 191 276Q92 186 41 96Q79 124 111 124Q133 124 171.50 106.50Q210 89 220 89Q260 89 298 167Q306 184 340 277Z"  horiz-adv-x="335" vert-adv-y="2048"  />

      
      <glyph glyph-name="unidf" unicode="&#xdf;" d="M290 307Q262 313 245 313Q148 313 95 213Q71 168 71 115Q71 80 95.50 51Q120 22 154 22Q201 22 245 144Q256 174 290 307M296 331Q326 450 326 522Q326 559 306 594Q275 583 253 583Q218 583 218 609Q221 636 264 636Q287 636 307 622Q400 670 400 792Q400 901 323 901Q281 901 252 794L112 281Q180 337 247 337Q266 337 296 331M459 188L440 177Q438 180 429 193L411 220Q401 235 382 255Q357 162 307 90Q242-4 164-4Q93-4 55 71Q53 65 47 48Q20-25 0-69Q-15-103-51-154Q-107-234-170-304L-187-287Q-125-210-85-73Q-73-34-52 43L-27 141L143 751Q158 804 166 823Q210 925 313 925Q425 925 425 793Q425 667 328 606Q402 511 402 391Q402 336 388 282Q427 250 459 188Z"  horiz-adv-x="458" vert-adv-y="2048"  />

      
      <glyph glyph-name="uni0192" unicode="&#x0192;" d="M4-196L82 24Q61 31 44 31Q-61 31-119-93Q-146-151-146-213Q-146-312-80-312Q-48-312-24-268Q-17-254 4-196M331 439L176 2Q217-39 233-96L211-103Q198-60 166-25L110-184Q49-358-55-358Q-114-358-147-312Q-177-271-177-210Q-177-63-65 22Q-16 59 41 59Q63 59 91 50L234 453Q212 459 194 459Q157 459 100 436L91 457Q150 481 195 481Q220 481 241 474L326 714Q352 788 402 840Q461 903 530 903Q636 903 636 784Q636 733 610 692Q580 644 532 644Q477 644 477 695Q477 743 554 758Q599 767 599 807Q599 868 548 868Q483 868 442 753L427 711L339 462Q368 456 389 456Q426 456 474 474L483 453Q435 433 395 433Q366 433 331 439Z"  horiz-adv-x="499" vert-adv-y="2048"  />

      
      <glyph glyph-name="uni201E" unicode="&#x201E;" d="M207-167L195-153Q293-87 293-31Q293-10 274 6Q248 28 248 57Q248 123 307 123Q355 123 355 52Q355-16 302-83Q268-126 207-167M31-166L19-153Q118-86 118-31Q118-16 102 2Q80 26 78 31Q72 42 72 57Q72 123 130 123Q178 123 178 55Q178-77 31-166Z"  horiz-adv-x="507" vert-adv-y="2048"  />

      
      <glyph glyph-name="uni2026" unicode="&#x2026;" d="M1769 82Q1769-7 1697-7Q1643-7 1643 52Q1643 136 1719 136Q1769 136 1769 82M1087 82Q1087 48 1068 22Q1047-7 1014-7Q961-7 961 52Q961 86 982 111Q1003 136 1036 136Q1087 136 1087 82M404 82Q404-7 332-7Q278-7 278 52Q278 136 354 136Q404 136 404 82Z"  horiz-adv-x="2048" vert-adv-y="2048"  />

      
      <glyph glyph-name="uni02C6" unicode="&#x02C6;" d="M280 717L344 616L329 615L259 685L147 615L137 623L223 710Q250 737 257 737Q267 737 280 717Z"  horiz-adv-x="480" vert-adv-y="2048"  />

      
      <glyph glyph-name="uni2030" unicode="&#x2030;" d="M867 305Q867 358 830 357Q793 356 757 261Q706 126 706 48Q706 11 737 11Q783 11 819 104Q867 229 867 305M562 305Q562 358 525 357Q488 356 452 261Q401 126 401 48Q401 11 432 11Q498 11 547 215Q562 277 562 305M279 689Q279 742 242 741Q205 740 170 645Q119 507 119 432Q119 395 150 395Q196 395 231 488Q279 615 279 689M896 280Q896 204 853 104Q802-14 737-14Q696-14 672 24Q651 56 651 99Q651 248 744 339Q786 380 829 380Q896 380 896 280M591 280Q591 202 548 103Q498-14 431-14Q346-14 346 99Q346 247 439 340Q479 380 524 380Q591 380 591 280M601 751L88 0L55 0L566 751L601 751M309 664Q309 586 266 488Q214 370 149 370Q64 370 64 483Q64 571 108 659Q161 764 241 764Q309 764 309 664Z"  horiz-adv-x="951" vert-adv-y="2048"  />

      
      <glyph glyph-name="uni2039" unicode="&#x2039;" d="M278 474L297 500Q285 362 206 274Q212 231 212 198Q212 116 188 59Q167 174 96 273Q131 304 186 357Q208 378 278 474Z"  horiz-adv-x="379" vert-adv-y="2048"  />

      
      <glyph glyph-name="uni2018" unicode="&#x2018;" d="M373 1160L384 1147Q286 1081 286 1025Q286 1008 302 992Q332 962 332 937Q332 871 274 871Q225 871 225 939Q225 1069 373 1160Z"  horiz-adv-x="330" vert-adv-y="2048"  />

      
      <glyph glyph-name="uni2019" unicode="&#x2019;" d="M206 871L194 884Q293 952 293 1007Q293 1021 277 1039Q255 1063 253 1068Q247 1079 247 1095Q247 1161 305 1161Q353 1161 353 1092Q353 960 206 871Z"  horiz-adv-x="330" vert-adv-y="2048"  />

      
      <glyph glyph-name="uni201C" unicode="&#x201C;" d="M550 1160L562 1146Q463 1082 463 1024Q463 1005 483 987Q509 964 509 936Q509 911 491.50 890.50Q474 870 449 870Q401 870 401 941Q401 1008 454 1076Q486 1117 550 1160M373 1160L384 1147Q286 1081 286 1025Q286 1008 302 992Q332 962 332 937Q332 871 274 871Q225 871 225 939Q225 1069 373 1160Z"  horiz-adv-x="507" vert-adv-y="2048"  />

      
      <glyph glyph-name="uni201D" unicode="&#x201D;" d="M409 870L397 884Q496 952 496 1007Q496 1021 473 1047.50Q450 1074 450 1095Q450 1160 510 1160Q558 1160 558 1090Q558 1024 504 954Q488 934 467 913Q452 898 409 870M233 871L222 884Q320 950 320 1007Q320 1022 304 1039Q274 1071 274 1095Q274 1161 332 1161Q381 1161 381 1092Q381 965 233 871Z"  horiz-adv-x="507" vert-adv-y="2048"  />

      
      <glyph glyph-name="uni2022" unicode="&#x2022;" d="M129 374Q129 427 165.50 463.50Q202 500 255 500Q308 500 344.50 463.50Q381 427 381 374Q381 321 344.50 285Q308 249 255 249Q203 249 166 285.50Q129 322 129 374Z"  horiz-adv-x="456" vert-adv-y="2048"  />

      
      <glyph glyph-name="uni2013" unicode="&#x2013;" d="M343 267Q331 267 326 268L310 268Q297 268 266 270Q239 271 223 271L110 268Q106 267 82 267Q95 301 99 326L116 326Q119 325 125 325L245 321Q252 321 359 326Q358 316 356 313L349 295L347 279Q347 277 346 276L343 267Z"  horiz-adv-x="475" vert-adv-y="2048"  />

      
      <glyph glyph-name="uni2014" unicode="&#x2014;" d="M136 268L82 267Q95 301 99 326L125 325Q154 325 225 324Q278 323 303 323L1988 322Q2072 322 2129 326Q2127 312 2127 313L2120 295L2117 279Q2117 274 2114 267L1985 271Q1598 283 1139 283Q946 283 136 268Z"  horiz-adv-x="2245" vert-adv-y="2048"  />

      
      <glyph glyph-name="uni02DC" unicode="&#x02DC;" d="M387 713L399 700Q345 636 297 636Q280 636 248 649.50Q216 663 199 663Q172 663 149 644L137 656Q200 716 232 716Q252 716 284.50 703Q317 690 333 690Q359 690 387 713Z"  horiz-adv-x="535" vert-adv-y="2048"  />

      
      <glyph glyph-name="uni203A" unicode="&#x203A;" d="M101 86L82 59Q94 198 173 286Q167 330 167 361Q167 442 191 500Q212 382 284 287Q255 263 193 203Q162 173 101 86Z"  horiz-adv-x="351" vert-adv-y="2048"  />

      
      <glyph glyph-name="uni0153" unicode="&#x0153;" d="M292 387Q292 485 233 485Q169 485 91 186Q72 113 72 74Q72 18 120 18Q182 18 232 138Q292 283 292 387M362 180Q418 183 445.50 202.50Q473 222 497 274Q541 369 541 439Q541 492 502 492Q474 492 440 416Q397 320 362 180M615 277L638 269Q530-2 396-2Q278-2 263 147Q237 92 224 69Q179-7 113-7Q52-7 17 46Q-14 92-14 155Q-14 336 115 459Q172 513 225 513Q315 513 315 382L315 357Q383 519 497 519Q585 519 585 396Q585 257 484 193Q437 163 358 155Q353 112 353 90Q353 25 402 25Q477 25 531 116Q537 126 609 261Q611 264 614 270Q615 273 615 277Z"  horiz-adv-x="610" vert-adv-y="2048"  />

      
      <glyph glyph-name="unia1" unicode="&#xa1;" d="M297 644L319 644L309 600Q306 586 296 542Q293 529 287 503L260 378Q258 368 252 344Q246 306 244 299L209 86Q194-8 128-8Q75-8 75 50Q75 137 178 363L249 519Q271 568 290 625Q293 633 297 644M275 773Q279 857 351 857Q403 857 403 799Q403 764 383 740Q361 713 327 713Q272 713 275 773Z"  horiz-adv-x="409" vert-adv-y="2048"  />

      
      <glyph glyph-name="unia2" unicode="&#xa2;" d="M279 627L310 729L335 729L303 621Q356 589 356 518Q356 465 328 411Q295 347 247 347Q206 347 206 390Q206 444 263 462L288 470Q329 483 329 527Q329 598 280 598Q233 598 189 475Q122 288 122 199Q122 135 169 135Q229 135 287 270L309 261Q257 118 164 102L126-29L101-29L140 104Q34 152 34 277Q34 456 169 582Q217 627 271 627L279 627Z"  horiz-adv-x="377" vert-adv-y="2048"  />

      
      <glyph glyph-name="unia3" unicode="&#xa3;" d="M536 275L541 296Q533 296 517 298Q514 283 511 277Q522 277 536 275M532 254Q527 253 525 253L511 254L504 254Q491 225 478 204Q470 191 435 158L444 158Q454 158 494 150Q514 188 532 254M483 129Q461 136 448 136Q407 136 350 109L341 129Q401 160 423 178Q460 208 479 255L468 255Q441 255 399 235L390 254Q435 278 477 278L488 278Q490 286 492 303Q418 322 373.50 376.50Q329 431 329 506L329 521Q307 526 292 526Q152 526 81 398Q48 339 48 269Q48 124 170 47Q227 11 289 11Q414 11 483 129M496 327L496 343Q496 405 455.50 452.50Q415 500 353 516L353 506Q353 444 394.50 390.50Q436 337 496 327M720 702Q665 743 589 743Q497 743 431.50 687.50Q366 632 354 542Q519 493 519 342L519 322Q536 319 547 319Q609 613 720 702M654 332Q789 373 854 508Q884 570 884 635Q884 715 814 715Q791 715 765 695Q788 673 795 662L817 628Q818 628 820 626L826 617L806 604Q781 648 749 679Q708 628 676 452L654 332M827 168L850 164Q799-17 706-17Q647-17 601 33L566 71Q563 74 550 83Q451-16 312-16Q140-16 61 124Q23 191 23 270Q23 427 156 511Q216 549 284 549Q298 549 331 545Q342 676 467 737Q527 766 592 766Q676 766 741 716Q784 741 815 741Q906 741 906 635Q906 500 802 393Q749 339 647 306Q646 299 644 297L642 284Q642 281 641 280Q641 275 639 272Q637 264 636 261Q660 254 689 254Q732 254 774 274L783 254Q743 229 693 229Q674 229 628 237Q610 176 580 126Q688 88 733 88Q803 88 827 168Z"  horiz-adv-x="906" vert-adv-y="2048"  />

      
      <glyph glyph-name="unia5" unicode="&#xa5;" d="M269 389L349 389L342 369L257 369L253 363L245 349Q233 320 229 300L319 300L312 280L221 280L219 273Q204 224 166 94Q159 70 146-2Q106 8 79 8Q59 8 20-2Q54 93 93 193L127 280L39 280L46 300L135 300Q138 307 146 325Q148 329 157 350L157 361Q156 365 156 369L69 369L76 389L155 389L149 470L144 550Q137 655 123 736Q158 729 183 729Q204 729 225 736Q216 663 216 578Q216 487 225 401Q355 584 431 736Q458 729 477 729Q489 729 516 736Q466 674 423 614Q361 528 297 434Q293 426 283 411.50Q273 397 269 389Z"  horiz-adv-x="421" vert-adv-y="2048"  />

      
      <glyph glyph-name="unicb" unicode="&#xcb;" d="M1056 489Q1015 506 997 540Q929 469 824 469Q696 469 616 573Q543 669 543 801Q543 934 632 1050L603 1046Q392 1017 252 841Q117 671 117 455Q117 233 264 63Q418-115 637-115Q816-115 958 50Q770 172 654 172Q642 172 619.50 169Q597 166 585 166Q563 166 563 188Q563 210 589 210Q604 210 634.50 205.50Q665 201 680 201Q804 201 911 287Q1012 367 1056 489M1419 977Q1380 990 1280 1030Q994 1156 903 1156Q781 1156 695 1076Q882 1070 998 944.50Q1114 819 1114 631Q1114 566 1096 501Q1116 496 1137 496Q1140 496 1145 497L1153 497Q1222 706 1248 760Q1309 889 1419 977M1064 512Q1086 571 1086 640Q1086 918 840 1021Q763 1053 697 1053Q679 1053 668 1052Q568 939 568 799Q568 678 635 590Q708 493 825 493Q923 493 987 563Q983 588 983 602Q983 651 1009 651Q1034 651 1034 615Q1034 589 1014 563Q1030 525 1064 512M1146 472L1136 472Q1129 471 1126 471Q1113 471 1089 475Q1012 250 757 183Q853 152 979 79Q1065 212 1146 472M1041-10Q861-141 654-141Q410-141 244 47Q85 228 85 475Q85 660 174.50 804.50Q264 949 431 1023Q545 1074 658 1076Q782 1200 1007 1200Q1128 1200 1358 1123Q1588 1046 1709 1046Q1865 1046 1865 1147Q1865 1158 1860 1175L1885 1184Q1889 1163 1889 1139Q1889 1094 1864 1050Q1798 934 1643 934Q1576 934 1449 967Q1375 895 1332 757Q1313 695 1279 518Q1359 535 1386 535Q1431 535 1471 517Q1521 494 1521 455Q1521 430 1499 430Q1486 430 1476 463Q1461 512 1390 512Q1344 512 1274 490Q1237 319 1211 247Q1165 119 1084 34Q1308-54 1434-54Q1573-54 1639 41Q1676 94 1676 130Q1676 167 1648 167Q1642 164 1616 151Q1598 142 1582 142Q1557 142 1537.50 165.50Q1518 189 1518 215Q1518 246 1541 266.50Q1564 287 1595 287Q1697 287 1697 140Q1697 82 1671 20Q1596-159 1399-159Q1244-159 1041-10M1640 1196Q1640 1134 1582 1134Q1538 1134 1538 1177Q1538 1247 1594 1247Q1640 1247 1640 1196M1797 1197Q1797 1135 1737 1135Q1696 1135 1696 1178Q1696 1246 1750 1246Q1797 1246 1797 1197Z"  horiz-adv-x="1797" vert-adv-y="2048"  />

      
      <glyph glyph-name="uniab" unicode="&#xab;" d="M440 474L458 500Q448 367 367 274Q373 231 373 198Q373 119 350 59Q328 177 257 273Q291 303 347 357Q384 393 440 474M295 499Q286 346 203 270Q212 233 212 204Q212 120 188 55Q181 81 181 84Q168 144 156.50 169Q145 194 110 247Q106 253 96 268Q132 296 172 338Q178 344 229 410L282 479L286 486Q289 491 295 499Z"  horiz-adv-x="540" vert-adv-y="2048"  />

      
      <glyph glyph-name="unic7" unicode="&#xc7;" d="M965-124Q913 3 913 164Q913 229 920 275Q875 252 810 226L790 218Q780 214 780 109Q780-48 831-97Q868-133 916-133Q934-133 965-124M987-117Q1092-47 1153 115Q1224 303 1224 457Q1224 508 1210 538Q1150 460 1093 406Q1043 359 945 290Q937 202 937 146Q937 5 987-117M1185 572Q1163 587 1141 587Q1018 587 953 326Q1096 423 1185 572M1197 593Q1250 701 1266 745Q1317 881 1317 1016Q1317 1154 1231 1154Q1160 1154 1091 1055Q1130 998 1159 931L1138 921Q1110 981 1075 1033Q1050 997 1021 941Q984 868 969 834Q888 645 844 463Q825 386 805 290L796 248Q876 275 925 308Q949 415 993 495Q1057 609 1141 609Q1171 609 1197 593M667 217Q678 390 714 510Q759 661 837 807Q895 916 1042 1075Q959 1174 838 1206Q774 1223 712 1223Q566 1223 441.50 1147.50Q317 1072 242 943.50Q167 815 167 672Q167 411 387 277Q489 215 608 215Q633 215 667 217M923-158L896-246Q916-234 931-234Q983-234 983-293Q983-351 919-408Q867-454 802-480L802-453Q928-375 928-292Q928-268 909-268Q887-268 872-297L851-297L896-156Q786-136 723-25Q668 71 667 192Q637 189 617 189Q467 189 345.50 272Q224 355 169 494Q133 585 133 688Q133 839 207.50 968.50Q282 1098 412.50 1173.50Q543 1249 695 1249Q920 1249 1061 1093Q1164 1178 1228 1178Q1358 1178 1358 955Q1358 772 1228 566Q1278 499 1278 400Q1278 252 1200 97Q1119-65 998-138Q1044-226 1098-280Q1125-307 1176-344L1161-363Q1040-278 973-147Q948-156 923-158Z"  horiz-adv-x="1369" vert-adv-y="2048"  />

      
      <glyph glyph-name="unib4" unicode="&#xb4;" d="M283 680L151 604L137 619L247 729L268 753Q277 763 293 763Q327 763 327 729Q327 705 283 680Z"  horiz-adv-x="463" vert-adv-y="2048"  />

      
      <glyph glyph-name="unib7" unicode="&#xb7;" d="M201 392Q201 358 182 332Q161 303 128 303Q75 303 75 362Q75 446 150 446Q201 446 201 392Z"  horiz-adv-x="275" vert-adv-y="2048"  />

      
      <glyph glyph-name="unibb" unicode="&#xbb;" d="M262 86L243 59Q256 201 335 286Q328 332 328 361Q328 442 352 500Q373 382 445 287Q416 263 354 203Q323 173 262 86M82 55Q96 214 174 285Q165 321 165 351Q165 436 189 499Q196 478 196 471Q219 378 267 308Q268 305 271 302L275 296Q279 292 281 286Q223 242 155 159Q138 138 101 83Q96 76 82 55Z"  horiz-adv-x="513" vert-adv-y="2048"  />

      
      <glyph glyph-name="unibf" unicode="&#xbf;" d="M284 139L264 128Q243 172 243 212Q243 342 325 417Q362 451 400 451Q493 451 493 326Q493 251 447 170Q405 95 342 43.50Q279-8 216-8Q149-8 109 41Q71 87 71 156Q71 237 124 316Q157 365 242 442Q361 549 361 595L359 609L354 626Q354 637 367 648Q380 659 392 659Q408 659 408 641Q408 597 360 533L311 468Q237 370 203 273Q162 156 162 95Q162 20 222 20Q299 20 370 160Q433 284 433 371Q433 422 395 422Q331 422 286 312Q267 266 267 216Q267 184 284 139M364 773Q364 859 440 859Q492 859 492 803Q492 718 417 718Q364 718 364 773Z"  horiz-adv-x="564" vert-adv-y="2048"  />

      
      <glyph glyph-name="uni0131" unicode="&#x0131;" d="M228 277L250 269L230 217Q144-7 60-7Q19-7-8 30Q-32 64-32 106Q-32 133-9 219L68 507Q91 504 117 504Q137 504 169 509L58 100Q49 67 49 52Q49 23 74 23Q111 23 160 119Q185 168 228 277Z"  horiz-adv-x="223" vert-adv-y="2048"  />

      
      <glyph glyph-name="unib0" unicode="&#xb0;" d="M296 726Q296 781 242 781Q212 781 190 757Q168 733 168 703Q168 643 221 643Q253 643 274.50 668Q296 693 296 726M330 727Q330 679 299.50 645.50Q269 612 222 612Q137 612 137 703Q137 747 168 780Q199 813 243 813Q330 813 330 727Z"  horiz-adv-x="466" vert-adv-y="2048"  />

      
      <glyph glyph-name="uniFB00" unicode="&#xFB00;" d="M390 458L458 701Q408 706 408 752Q408 811 465 816L486 818Q491 818 503 824Q512 846 523 864Q523 934 467 934Q405 934 366 793L274 464Q312 484 336 484Q362 484 390 458M-48-331L43-7Q22-3 2-3Q-104-3-171-158Q-201-227-201-299Q-201-420-124-420Q-73-420-48-331M266 16L359 347Q349 344 342 344Q306 344 306 384Q306 437 349 437Q359 437 385 427Q360 461 335 461Q313 461 266 433L143-3Q188 18 233 18Q244 18 266 16M174-315L261-7Q243-4 225-4Q189-4 141-31Q179-75 195-124L174-132Q161-91 130-54L73-253Q47-344 31-374Q56-423 96-423Q143-423 174-315M482 432L352-28Q389-62 418-123L398-133Q382-92 347-54L294-250Q268-345 241-388Q196-457 121-457Q59-457 17-400Q-31-456-96-456Q-157-456-192-409Q-223-367-223-304Q-223-129-107-26Q-55 20 0 20Q16 20 48 16L149 378Q131 372 113 372Q98 372 68 378Q62 354 42 304L28 269L6 277L18 307Q34 347 48 388Q10 418 10 447Q10 485 40 485Q74 485 74 435L74 420Q73 415 73 404Q91 397 112 397Q132 397 156 404L227 651Q246 718 273 794Q310 900 375 938Q416 962 457 962Q513 962 553 901Q612 960 670 960Q777 960 777 842Q777 795 751 751Q721 699 678 699Q624 699 624 753Q624 806 680 815Q741 825 741 873Q741 935 684 935Q622 935 582 792L491 464Q524 482 547 482Q599 482 630 419L608 412Q579 459 545 459Q523 459 482 432Z"  horiz-adv-x="543" vert-adv-y="2048"  />

      
      <glyph glyph-name="uni0410" unicode="&#x0410;" d="M1718-121Q1718-244 1571-244Q1430-244 1358-103Q1301 8 1301 163Q1301 247 1317 368Q1309 365 1154 320Q1095 152 1041 70Q963-48 833-103Q738-143 638-143Q399-143 239 36Q85 209 85 451Q85 649 193.50 801.50Q302 954 489 1019Q572 1048 700 1048Q823 1215 1056 1215Q1255 1215 1371 1095Q1487 975 1487 775Q1487 630 1455 403Q1531 390 1578 333L1560 321Q1511 374 1453 379Q1425 184 1425 70Q1425-219 1590-219Q1697-219 1697-108L1717-108Q1718-112 1718-121M1382 786Q1382 804 1381 812Q1352 798 1331 773Q1269 699 1162 347Q1171 350 1297 386Q1304 388 1321 394L1359 589Q1382 707 1382 786M1382 839Q1376 913 1359 960Q1322 1064 1229.50 1126.50Q1137 1189 1026 1189Q848 1189 728 1046Q908 1018 1011.50 897.50Q1115 777 1115 594Q1115 576 1114 557Q1215 672 1247 792L1268 791Q1224 623 1110 530Q1078 386 1028 322Q1041 322 1108 333Q1127 379 1196 550Q1234 645 1296 767Q1326 812 1382 839M1088 620Q1088 787 981 897Q878 1004 710 1024Q644 917 644 806Q644 679 724 589Q806 495 932 495Q1003 495 1080 539Q1088 589 1088 620M1099 306Q1069 304 1011 296Q880 154 708 154Q571 154 478.50 243.50Q386 333 386 470Q386 514 405 574L425 568Q408 506 408 468Q408 350 491 265Q574 180 692 180Q826 180 956 304Q904 317 870 360L887 372Q913 334 972 323Q1032 386 1072 507Q1000 472 931 472Q795 472 706 574Q621 672 621 810Q621 927 683 1025Q444 1018 281 843.50Q118 669 118 429Q118 208 264 48Q414-118 633-118Q905-118 1032 143Q1064 208 1099 306Z"  horiz-adv-x="1619" vert-adv-y="2048"  />

      
      <glyph glyph-name="uni0411" unicode="&#x0411;" d="M1893 1154Q1763 962 1532 962Q1460 962 1406 975Q1339 832 1290 541L1288 529Q1333 566 1381 566Q1461 566 1523 472Q1580 385 1575 299L1570 222L1567 202Q1612 160 1636 90L1615 78Q1583 146 1560 170Q1526 39 1451-51Q1361-159 1239-159Q1109-159 1109-16Q1109 10 1115 38Q931-167 665-167Q413-167 246 20Q85 201 85 455Q85 679 219 837Q350 990 571 1042Q710 1209 957 1209Q1062 1209 1219 1155Q1370 1103 1462 1079Q1499 1120 1604 1120Q1636 1120 1665 1115L1665 1092Q1629 1099 1602 1099Q1548 1099 1500 1070Q1595 1048 1656 1048Q1786 1048 1875 1168L1893 1154M1464 390Q1464 539 1372 539Q1330 539 1282 496Q1260 378 1213 223Q1290 284 1384 284Q1408 284 1454 275Q1464 316 1464 390M1087 640Q1078 742 1049 805Q1004 903 895 966Q791 1027 679 1027Q646 1027 582 1017Q513 937 513 810Q513 682 601.50 591Q690 500 818 500Q970 500 1087 640M1447 247Q1413 259 1379 259Q1272 259 1201 172Q1133 91 1133-18Q1133-60 1155-92Q1179-128 1219-128Q1302-128 1373 21Q1419 117 1447 247M1369 990Q1310 1004 1112 1092Q947 1165 856 1165Q725 1165 609 1050Q660 1053 685 1053Q739 1053 798 1035Q1068 952 1111 679Q1165 792 1165 879Q1165 945 1141 1008L1162 1019Q1188 950 1188 885Q1188 761 1113 636Q1114 620 1114 589Q1114 415 1001 287Q883 155 711 155Q575 155 481 245Q387 335 387 470Q387 511 402 574L424 572Q409 509 409 473Q409 353 490.50 268Q572 183 692 183Q808 183 914 266Q1015 346 1058 458Q1080 515 1086 598Q969 477 817 477Q676 477 582.50 575Q489 673 489 815Q489 907 545 1008Q468 981 424 957Q283 881 201 738.50Q119 596 119 434Q119 209 266 38Q420-140 642-140Q827-140 950 16Q1032 120 1110 338Q1156 502 1265 820Q1309 929 1369 990Z"  horiz-adv-x="1693" vert-adv-y="2048"  />

      
      <glyph glyph-name="uni0412" unicode="&#x0412;" d="M1665 1092Q1627 1099 1602 1099Q1536 1099 1475 1053Q1619 911 1619 760Q1619 590 1457 525Q1575 426 1575 299Q1575 288 1572 260Q1569 236 1570 222L1567 202Q1612 160 1636 90L1615 78Q1583 146 1560 170Q1526 39 1451-51Q1361-159 1239-159Q1109-159 1109-16Q1109 10 1115 38Q931-167 665-167Q413-167 246 20Q85 201 85 455Q85 679 219 837Q350 990 571 1042Q735 1238 1017 1238Q1241 1238 1456 1071Q1526 1123 1596 1123Q1622 1123 1665 1115L1665 1092M1513 810Q1513 937 1447 1028Q1351 925 1290 541Q1268 402 1213 223Q1290 284 1384 284Q1408 284 1454 275Q1464 316 1464 390Q1464 472 1423 519Q1400 514 1384 514Q1328 514 1328 541Q1328 561 1361 561Q1385 561 1424 547Q1513 614 1513 810M1087 640Q1078 742 1049 805Q1004 903 895 966Q791 1027 679 1027Q646 1027 582 1017Q513 937 513 810Q513 682 601.50 591Q690 500 818 500Q970 500 1087 640M1447 247Q1413 259 1379 259Q1272 259 1201 172Q1133 91 1133-18Q1133-60 1155-92Q1179-128 1219-128Q1302-128 1373 21Q1419 117 1447 247M1428 1051Q1250 1215 1016 1215Q766 1215 609 1050Q662 1053 685 1053L682 1053Q802 1053 913.50 985Q1025 917 1074 810Q1099 756 1111 679Q1165 792 1165 879Q1165 945 1141 1008L1162 1019Q1188 950 1188 885Q1188 761 1113 636Q1114 620 1114 589Q1114 415 1001 287Q883 155 711 155Q575 155 481 245Q387 335 387 470Q387 511 402 574L424 572Q409 509 409 473Q409 353 490.50 268Q572 183 692 183Q808 183 914 266Q1015 346 1058 458Q1080 515 1086 598Q969 477 817 477Q676 477 582.50 575Q489 673 489 815Q489 907 545 1008Q470 982 424 957Q283 881 201 738.50Q119 596 119 434Q119 209 266 38Q420-140 642-140Q853-140 982 59Q1087 221 1204 627Q1218 676 1258 801Q1302 929 1428 1051Z"  horiz-adv-x="1693" vert-adv-y="2048"  />

      
      <glyph glyph-name="uni0413" unicode="&#x0413;" d="M1943 1154Q1813 962 1588 962Q1530 962 1468 977Q1358 887 1306 646Q1229 291 1206 232Q1116 4 904-91Q788-143 665-143Q399-143 231 68Q84 252 84 480Q84 724 247 892Q407 1058 652 1076Q782 1209 1007 1209Q1111 1209 1269 1155Q1582 1048 1706 1048Q1836 1048 1925 1168L1943 1154M1086 645Q1086 784 1002.50 895.50Q919 1007 785 1040Q736 1052 664 1052Q573 948 573 812Q573 683 651 589Q733 490 860 490Q972 490 1085 603Q1086 616 1086 645M1437 984Q1375 998 1168 1089Q995 1165 906 1165Q779 1165 689 1075Q881 1065 993 949.50Q1105 834 1115 642Q1148 698 1177 803L1201 795Q1170 674 1114 594Q1099 419 993 303Q880 180 709 180Q572 180 478.50 269.50Q385 359 385 495Q385 542 402 602L426 596Q409 536 409 495Q409 377 492 292Q575 207 693 207Q830 207 942 315Q1046 416 1078 556Q971 466 859 466Q723 466 633 572Q548 672 548 810Q548 947 630 1050Q542 1038 482 1013Q319 945 219 789.50Q119 634 119 456Q119 233 266 63Q420-116 639-116Q845-116 983 91Q1069 221 1151 483L1197 631Q1226 715 1256 774Q1311 881 1437 984Z"  horiz-adv-x="1367" vert-adv-y="2048"  />

      
      <glyph glyph-name="uni0414" unicode="&#x0414;" d="M1679 1091L1677 1069Q1654 1073 1628 1073Q1552 1073 1485 1025Q1676 810 1676 571Q1676 385 1610 232Q1647 190 1660 147L1634 142Q1624 174 1600 204Q1541 65 1448-30Q1331-150 1201-150Q1147-150 1114-109Q1083-72 1083-17Q1083 0 1088 32Q916-146 662-146Q413-146 246 43Q85 225 85 477Q85 711 225 869Q360 1023 593 1069Q766 1231 1003 1231Q1220 1231 1370 1126Q1410 1098 1466 1045Q1540 1098 1622 1098Q1647 1098 1679 1091M1588 615Q1588 833 1462 1005Q1391 932 1343 781Q1316 695 1274 496Q1235 309 1209 236Q1316 322 1416 322Q1468 322 1538 293Q1588 465 1588 615M1088 637Q1078 875 905 983Q800 1049 678 1049Q656 1049 601 1044Q508 922 508 801Q508 674 598.50 585Q689 496 817 496Q971 496 1088 637M1533 268Q1469 298 1411 298Q1303 298 1205 195.50Q1107 93 1107-15Q1107-61 1133-93Q1159-125 1204-125Q1325-125 1418 19Q1463 88 1533 268M1443 1028Q1275 1209 1004 1209Q791 1209 635 1075Q834 1075 958 975Q1087 871 1112 678Q1169 783 1169 891Q1169 948 1150 1004L1174 1012Q1195 945 1195 889Q1195 753 1115 634Q1110 558 1101 516Q1070 371 966 277Q857 177 713 177Q577 177 480 267Q383 357 383 491Q383 529 403 598L424 592Q407 527 407 493Q407 375 492 289Q577 203 695 203Q843 203 959 326Q1067 442 1085 594Q951 473 820 473Q680 473 582 569Q484 665 484 805Q484 918 564 1036Q469 1009 404 969Q274 890 195 749.50Q116 609 116 457Q116 229 266 58Q423-120 648-120Q834-120 973 66Q1052 172 1140 454Q1198 640 1239 737Q1315 916 1443 1028Z"  horiz-adv-x="1717" vert-adv-y="2048"  />

      
      <glyph glyph-name="uni0415" unicode="&#x0415;" d="M1889 1139Q1889 1094 1864 1050Q1798 934 1643 934Q1576 934 1449 967Q1375 895 1332 757Q1313 695 1279 518Q1359 535 1386 535Q1431 535 1471 517Q1521 494 1521 455Q1521 430 1499 430Q1486 430 1476 463Q1461 512 1390 512Q1344 512 1274 490Q1237 319 1211 247Q1165 119 1084 34Q1308-54 1434-54Q1573-54 1639 41Q1676 94 1676 130Q1676 167 1648 167Q1642 164 1616 151Q1598 142 1582 142Q1557 142 1537.50 165.50Q1518 189 1518 215Q1518 246 1541 266.50Q1564 287 1595 287Q1697 287 1697 140Q1697 82 1671 20Q1596-159 1399-159Q1244-159 1041-10Q861-141 654-141Q410-141 244 47Q85 228 85 475Q85 660 174.50 804.50Q264 949 431 1023Q545 1074 658 1076Q782 1200 1007 1200Q1128 1200 1358 1123Q1588 1046 1709 1046Q1865 1046 1865 1147Q1865 1158 1860 1175L1885 1184Q1889 1163 1889 1139M1419 977Q1380 990 1280 1030Q994 1156 903 1156Q781 1156 695 1076Q882 1070 998 944.50Q1114 819 1114 631Q1114 566 1096 501Q1116 496 1137 496Q1140 496 1145 497L1153 497Q1222 706 1248 760Q1309 889 1419 977M1086 640Q1086 918 840 1021Q763 1053 697 1053Q679 1053 668 1052Q568 939 568 799Q568 678 635 590Q708 493 825 493Q923 493 987 563Q983 588 983 602Q983 651 1009 651Q1034 651 1034 615Q1034 589 1014 563Q1030 525 1064 512Q1086 571 1086 640M1146 472L1136 472Q1129 471 1126 471Q1113 471 1089 475Q1012 250 757 183Q853 152 979 79Q1065 212 1146 472M1056 489Q1015 506 997 540Q929 469 824 469Q696 469 616 573Q543 669 543 801Q543 934 632 1050L603 1046Q392 1017 252 841Q117 671 117 455Q117 233 264 63Q418-115 637-115Q816-115 958 50Q770 172 654 172Q642 172 619.50 169Q597 166 585 166Q563 166 563 188Q563 210 589 210Q604 210 634.50 205.50Q665 201 680 201Q804 201 911 287Q1012 367 1056 489Z"  horiz-adv-x="1797" vert-adv-y="2048"  />

      
      <glyph glyph-name="uni0416" unicode="&#x0416;" d="M2216 1055Q2216 1031 2197.50 1008.50Q2179 986 2156 986Q2122 986 2094.50 1024.50Q2067 1063 2045 1063Q2001 1063 1962 1022Q1922 971 1892 865Q1856 737 1850 725Q1793 610 1666 551Q1768 456 1768 328Q1768 267 1751 145Q1734 23 1734-38Q1734-178 1824-178Q1918-178 1993-66L2003-87Q1956-156 1873-193Q1811-221 1763-221Q1687-221 1643-158Q1603-102 1603-23Q1603 63 1627 194Q1658 363 1663 410Q1669 461 1660 489Q1653 510 1628 544Q1610 541 1577 540Q1522 291 1494 200Q1427-21 1339-106Q1175-266 955-265Q905-265 817-246Q822-238 833-227Q867-240 959-240Q1137-240 1251-61Q1308 28 1364 223Q1389 317 1442 504L1453 541Q1426 539 1399 549Q1342 540 1299 487Q1265 445 1255 402Q1210 209 1148 111Q1066-19 905-90Q881-101 855-110Q766-142 664-142Q413-142 246 44Q85 224 85 478Q85 718 238.50 885.50Q392 1053 631 1076Q769 1215 943 1215Q1102 1215 1227 1110Q1302 1047 1385 991Q1502 1108 1595 1108Q1662 1108 1662 1051Q1662 997 1603 964Q1553 936 1495 936Q1464 936 1414 950Q1352 848 1352 712Q1352 618 1405 589Q1430 594 1448 594Q1460 594 1469 592Q1519 750 1574 849Q1746 1159 2097 1163L2096 1146Q1910 1148 1781 1029Q1682 937 1647 810Q1631 750 1588 587Q1622 584 1641 569Q1721 598 1769 681Q1791 719 1839 848Q1882 964 1922 1014Q1940 1037 1960 1055Q2028 1118 2116 1118Q2216 1118 2216 1055M1637 1049Q1637 1085 1591 1085Q1498 1085 1427 974Q1457 962 1492 962Q1542 962 1583 981Q1637 1006 1637 1049M1085 630Q1085 719 1067 780Q1022 934 861 1012Q775 1054 663 1054Q659 1054 653 1053L643 1053Q568 939 568 830Q568 704 648 610Q732 512 856 512Q986 512 1085 630M1377 574Q1313 627 1308 762Q1304 880 1368 971Q1278 1013 1164 1086Q1111 1120 1024 1164Q974 1183 911 1183Q769 1183 664 1080Q796 1080 906 1016Q1022 949 1073 832Q1099 772 1113 680Q1137 718 1171 813L1191 807Q1169 716 1114 632Q1100 338 891 227Q806 182 713 182Q581 182 486 268Q388 357 388 488Q388 563 403 601L425 597Q411 569 411 488Q411 370 493.50 291Q576 212 694 212Q841 212 952 328Q1054 435 1079 586Q976 488 857 488Q723 488 632 592Q545 692 545 828Q545 943 610 1047Q511 1037 406 972Q271 889 195.50 753Q120 617 120 458Q120 236 264 65Q416-115 634-115Q738-115 832-68Q990 11 1111 317Q1204 553 1377 574Z"  horiz-adv-x="1891" vert-adv-y="2048"  />

      
      <glyph glyph-name="uni0417" unicode="&#x0417;" d="M1551 1075Q1551 1015 1512.50 964.50Q1474 914 1416 894Q1418 785 1360 687Q1300 584 1202 545Q1333 466 1333 302Q1333 220 1289 140Q1209-5 1047-85Q898-159 721-159Q446-159 277 5Q85 191 85 469Q85 702 236 870.50Q387 1039 619 1066Q759 1263 989 1263Q1160 1263 1275 1177Q1401 1084 1415 919Q1531 967 1531 1078Q1531 1136 1490 1171L1511 1185Q1551 1135 1551 1075M1313 923Q1313 1073 1230 1156Q1143 1242 996 1242Q760 1242 652 1066L682 1066Q820 1066 931.50 987.50Q1043 909 1089 779Q1118 835 1118 903Q1118 997 1085 1018Q1045 1044 1045 1072Q1045 1090 1060 1090Q1085 1090 1102 1037Q1115 995 1193 952Q1260 915 1313 906L1313 923M1312 886Q1212 899 1129 975Q1137 943 1137 906Q1137 816 1099 749Q1116 691 1116 635Q1116 617 1114 600Q1148 587 1169 567Q1225 610 1268 713Q1306 805 1312 886M1071 748Q1034 880 924.50 961Q815 1042 677 1042Q652 1042 638 1041Q608 978 608 904Q608 791 671 719Q737 643 849 643Q997 643 1071 748M1152 552Q1139 565 1112 576Q1109 553 1105 528Q1135 540 1152 552M1083 586Q1056 592 1021 592Q938 592 938 547Q938 504 1007 504Q1032 504 1067 514Q1078 544 1083 586M1212 399Q1212 482 1171 529Q1148 510 1098 497Q1002 173 709 173Q572 173 479 260.50Q386 348 386 484Q386 539 407 594L428 588Q409 529 409 483Q409 368 491.50 284Q574 200 689 200Q945 200 1058 489Q1034 486 1012 486Q910 486 910 549Q910 617 1021 617Q1053 617 1085 609Q1086 624 1086 638Q1086 679 1078 719Q1000 622 841 622Q720 622 646 704Q572 786 572 908Q572 980 602 1035Q391 999 255 830Q121 665 121 449Q121 202 283 38Q445-126 692-126Q871-126 1002.50-29.50Q1134 67 1185 238Q1212 329 1212 399Z"  horiz-adv-x="1420" vert-adv-y="2048"  />

      
      <glyph glyph-name="uni0418" unicode="&#x0418;" d="M1949 961Q1949 898 1890 898Q1859 898 1852 924Q1850 931 1850 974Q1850 1026 1793 1026Q1656 1026 1527 696Q1483 586 1392 259Q1324 16 1324-63Q1324-201 1407-201Q1496-201 1552-61L1572-71Q1506-226 1404-226Q1313-226 1262-124Q1221-42 1221 59Q1221 87 1230 159Q1171 32 1137-20Q1063-134 992-134Q931-134 897-68Q869-14 869 53Q869 167 1015 454Q1161 741 1161 873Q1161 1046 1025 1152Q900 1250 723 1250Q404 1250 222 975Q117 817 117 645Q117 458 232 323Q353 180 537 180Q741 180 854 327Q958 463 948 671Q941 814 852 923Q755 1040 616 1040Q504 1040 420.50 963Q337 886 324 774L302 777Q311 898 402.50 982Q494 1066 616 1066Q687 1066 756 1034Q986 927 986 661Q986 448 870 307Q746 156 537 156Q339 156 204 304Q74 448 74 648Q74 899 273 1088Q468 1273 721 1273Q937 1273 1086 1147Q1245 1013 1245 801Q1245 713 1213 622Q1208 608 1143 454L1082 309Q1056 249 1040 213Q1020 172 982 89Q943 2 943-45Q943-107 996-107Q1120-107 1301 413Q1386 656 1402 693Q1468 842 1568 935Q1696 1053 1826 1053Q1949 1053 1949 961Z"  horiz-adv-x="1570" vert-adv-y="2048"  />

      
      <glyph glyph-name="uni0419" unicode="&#x0419;" d="M1949 961Q1949 898 1890 898Q1859 898 1852 924Q1850 931 1850 974Q1850 1026 1793 1026Q1656 1026 1527 696Q1483 586 1392 259Q1324 16 1324-63Q1324-201 1407-201Q1496-201 1552-61L1572-71Q1506-226 1404-226Q1313-226 1262-124Q1221-42 1221 59Q1221 87 1230 159Q1171 32 1137-20Q1063-134 992-134Q931-134 897-68Q869-14 869 53Q869 172 1005 435Q1148 712 1160 841Q1040 849 961.50 933.50Q883 1018 883 1139Q883 1182 895 1226Q811 1250 723 1250Q404 1250 222 975Q117 817 117 645Q117 458 232 323Q353 180 537 180Q741 180 854 327Q958 463 948 671Q941 814 852 923Q755 1040 616 1040Q504 1040 420.50 963Q337 886 324 774L302 777Q311 898 402.50 982Q494 1066 616 1066Q687 1066 756 1034Q986 927 986 661Q986 448 870 307Q746 156 537 156Q339 156 204 304Q74 448 74 648Q74 899 273 1088Q468 1273 721 1273Q812 1273 902 1249Q930 1323 1005 1383Q1080 1443 1160 1456L1165 1435Q986 1393 934 1235Q1004 1208 1065 1162Q1064 1171 1064 1180Q1064 1316 1202 1357Q1246 1370 1277 1370Q1375 1370 1436 1298Q1494 1230 1494 1130Q1494 1028 1418 946Q1346 867 1243 847Q1245 825 1245 801Q1245 714 1213 622Q1208 607 1143 454L1080 304Q1055 247 1040 213Q1020 172 982 89Q943 2 943-45Q943-107 996-107Q1120-107 1301 413Q1385 655 1402 693Q1468 842 1568 935Q1696 1053 1826 1053Q1949 1053 1949 961M1472 1136Q1472 1213 1424 1277Q1373 1347 1298 1347Q1209 1347 1153 1308Q1088 1263 1088 1178Q1088 1159 1093 1138Q1218 1032 1240 872Q1307 884 1400 959Q1472 1017 1472 1136M1161 873Q1161 986 1096 1077Q1034 1164 927 1210Q920 1179 920 1146Q920 1039 988 958Q1056 877 1161 868L1161 873Z"  horiz-adv-x="1570" vert-adv-y="2048"  />

      
      </font>
</defs>
</svg>
